<mxfile host="app.diagrams.net" agent="Mozilla/5.0 (X11; Linux x86_64) AppleWebKit/537.36 (KHTML, like Gecko) Chrome/124.0.0.0 Safari/537.36" version="28.2.7">
  <diagram name="Page-1" id="7egc0zuPVky3gPy5zDuA">
    <mxGraphModel dx="2933" dy="1175" grid="1" gridSize="10" guides="1" tooltips="1" connect="1" arrows="1" fold="1" page="1" pageScale="1" pageWidth="850" pageHeight="1100" math="0" shadow="0">
      <root>
        <mxCell id="0" />
        <mxCell id="1" parent="0" />
        <mxCell id="MVKbvdrMA4UdsX5ZscEp-20" style="edgeStyle=orthogonalEdgeStyle;rounded=0;orthogonalLoop=1;jettySize=auto;html=1;entryX=0;entryY=0.5;entryDx=0;entryDy=0;" edge="1" parent="1" source="MVKbvdrMA4UdsX5ZscEp-21" target="MVKbvdrMA4UdsX5ZscEp-16">
          <mxGeometry relative="1" as="geometry" />
        </mxCell>
        <mxCell id="MVKbvdrMA4UdsX5ZscEp-9" value="&lt;p style=&quot;margin:0px;margin-top:4px;text-align:center;text-decoration:underline;&quot;&gt;&lt;b&gt;Object:CategoryService&lt;/b&gt;&lt;/p&gt;&lt;hr size=&quot;1&quot; style=&quot;border-style:solid;&quot;&gt;&lt;p style=&quot;margin:0px;margin-left:8px;&quot;&gt;&lt;span style=&quot;background-color: rgb(13, 17, 23); color: rgb(201, 209, 217); font-family: &amp;quot;Droid Sans Mono&amp;quot;, &amp;quot;monospace&amp;quot;, monospace; font-size: 14px; white-space: pre;&quot;&gt;...&lt;br&gt;&lt;br&gt;categoryListCache: &lt;/span&gt;&lt;span style=&quot;color: rgb(253, 172, 84); background-color: rgb(13, 17, 23); font-family: &amp;quot;Droid Sans Mono&amp;quot;, &amp;quot;monospace&amp;quot;, monospace; font-size: 14px; white-space: pre;&quot;&gt;CacheManager&lt;/span&gt;&lt;span style=&quot;background-color: transparent; color: light-dark(rgb(0, 0, 0), rgb(255, 255, 255));&quot;&gt;&amp;nbsp;&lt;/span&gt;&lt;span style=&quot;background-color: rgb(13, 17, 23); color: rgb(201, 209, 217); font-family: &amp;quot;Droid Sans Mono&amp;quot;, &amp;quot;monospace&amp;quot;, monospace; font-size: 14px; white-space: pre;&quot;&gt;&amp;lt;&lt;/span&gt;&lt;span style=&quot;font-family: &amp;quot;Droid Sans Mono&amp;quot;, &amp;quot;monospace&amp;quot;, monospace; font-size: 14px; white-space: pre; color: rgb(253, 172, 84);&quot;&gt;PaginatedResult&lt;/span&gt;&lt;span style=&quot;background-color: rgb(13, 17, 23); color: rgb(201, 209, 217); font-family: &amp;quot;Droid Sans Mono&amp;quot;, &amp;quot;monospace&amp;quot;, monospace; font-size: 14px; white-space: pre;&quot;&gt;&amp;lt;&lt;/span&gt;&lt;span style=&quot;font-family: &amp;quot;Droid Sans Mono&amp;quot;, &amp;quot;monospace&amp;quot;, monospace; font-size: 14px; white-space: pre; color: rgb(253, 172, 84);&quot;&gt;Category&lt;/span&gt;&lt;span style=&quot;background-color: rgb(13, 17, 23); color: rgb(201, 209, 217); font-family: &amp;quot;Droid Sans Mono&amp;quot;, &amp;quot;monospace&amp;quot;, monospace; font-size: 14px; white-space: pre;&quot;&gt;&amp;gt;&amp;gt;&lt;/span&gt;&lt;/p&gt;&lt;p style=&quot;margin:0px;margin-left:8px;&quot;&gt;&lt;span style=&quot;background-color: rgb(13, 17, 23); color: rgb(201, 209, 217); font-family: &amp;quot;Droid Sans Mono&amp;quot;, &amp;quot;monospace&amp;quot;, monospace; font-size: 14px; white-space: pre;&quot;&gt;categorySingleCache: &lt;/span&gt;&lt;span style=&quot;color: rgb(253, 172, 84); background-color: rgb(13, 17, 23); font-family: &amp;quot;Droid Sans Mono&amp;quot;, &amp;quot;monospace&amp;quot;, monospace; font-size: 14px; white-space: pre;&quot;&gt;CacheManager&lt;/span&gt;&lt;span style=&quot;background-color: transparent; color: light-dark(rgb(0, 0, 0), rgb(255, 255, 255));&quot;&gt;&amp;nbsp;&amp;lt;&lt;/span&gt;&lt;span style=&quot;font-family: &amp;quot;Droid Sans Mono&amp;quot;, &amp;quot;monospace&amp;quot;, monospace; font-size: 14px; white-space: pre; color: rgb(253, 172, 84);&quot;&gt;Category&lt;/span&gt;&lt;span style=&quot;background-color: rgb(13, 17, 23); color: rgb(201, 209, 217); font-family: &amp;quot;Droid Sans Mono&amp;quot;, &amp;quot;monospace&amp;quot;, monospace; font-size: 14px; white-space: pre;&quot;&gt; &lt;/span&gt;&lt;span style=&quot;font-family: &amp;quot;Droid Sans Mono&amp;quot;, &amp;quot;monospace&amp;quot;, monospace; font-size: 14px; white-space: pre; color: rgb(236, 142, 44);&quot;&gt;|&lt;/span&gt;&lt;span style=&quot;background-color: rgb(13, 17, 23); color: rgb(201, 209, 217); font-family: &amp;quot;Droid Sans Mono&amp;quot;, &amp;quot;monospace&amp;quot;, monospace; font-size: 14px; white-space: pre;&quot;&gt; &lt;/span&gt;&lt;span style=&quot;font-family: &amp;quot;Droid Sans Mono&amp;quot;, &amp;quot;monospace&amp;quot;, monospace; font-size: 14px; white-space: pre; color: rgb(121, 192, 255);&quot;&gt;null&amp;gt;&lt;/span&gt;&lt;/p&gt;&lt;p style=&quot;margin:0px;margin-left:8px;&quot;&gt;&lt;span style=&quot;background-color: rgb(13, 17, 23); color: rgb(201, 209, 217); font-family: &amp;quot;Droid Sans Mono&amp;quot;, &amp;quot;monospace&amp;quot;, monospace; font-size: 14px; white-space: pre;&quot;&gt;cacheInitialized&lt;/span&gt;&amp;nbsp;=&amp;nbsp;&lt;span style=&quot;color: rgb(121, 192, 255); background-color: rgb(13, 17, 23); font-family: &amp;quot;Droid Sans Mono&amp;quot;, &amp;quot;monospace&amp;quot;, monospace; font-size: 14px; white-space: pre;&quot;&gt;false&lt;br&gt;&lt;br&gt;constructor() {&lt;br&gt;&lt;/span&gt;&lt;/p&gt;&lt;div style=&quot;color: rgb(201, 209, 217); background-color: rgb(13, 17, 23); font-family: &amp;quot;Droid Sans Mono&amp;quot;, &amp;quot;monospace&amp;quot;, monospace; font-size: 14px; line-height: 19px; white-space: pre;&quot;&gt;&lt;div&gt;  &lt;span style=&quot;color: rgb(253, 172, 84);&quot;&gt;CacheRegistry&lt;/span&gt;.&lt;span style=&quot;color: rgb(210, 168, 255);&quot;&gt;register&lt;/span&gt;(&lt;span style=&quot;color: rgb(165, 214, 255);&quot;&gt;&#39;categoryList&#39;&lt;/span&gt;, &lt;span style=&quot;color: rgb(253, 172, 84);&quot;&gt;CategoryService&lt;/span&gt;.categoryListCache);&lt;/div&gt;&lt;div&gt;      &lt;span style=&quot;color: rgb(253, 172, 84);&quot;&gt;CacheRegistry&lt;/span&gt;.&lt;span style=&quot;color: rgb(210, 168, 255);&quot;&gt;register&lt;/span&gt;(&lt;span style=&quot;color: rgb(165, 214, 255);&quot;&gt;&#39;categorySingle&#39;&lt;/span&gt;, &lt;span style=&quot;color: rgb(253, 172, 84);&quot;&gt;CategoryService&lt;/span&gt;.categorySingleCache);&lt;/div&gt;&lt;/div&gt;&lt;p style=&quot;margin:0px;margin-left:8px;&quot;&gt;&lt;span style=&quot;color: rgb(121, 192, 255); background-color: rgb(13, 17, 23); font-family: &amp;quot;Droid Sans Mono&amp;quot;, &amp;quot;monospace&amp;quot;, monospace; font-size: 14px; white-space: pre;&quot;&gt;&lt;br&gt;} &lt;br&gt;&lt;br&gt;&lt;/span&gt;&lt;/p&gt;&lt;div style=&quot;color: rgb(201, 209, 217); background-color: rgb(13, 17, 23); font-family: &amp;quot;Droid Sans Mono&amp;quot;, &amp;quot;monospace&amp;quot;, monospace; font-size: 14px; line-height: 19px; white-space: pre;&quot;&gt;&lt;span style=&quot;color: rgb(210, 168, 255);&quot;&gt;getCacheStats&lt;/span&gt;()&lt;br&gt;&lt;div style=&quot;line-height: 19px;&quot;&gt;&lt;span style=&quot;color: rgb(210, 168, 255);&quot;&gt;clearCache&lt;/span&gt;()&lt;/div&gt;&lt;div style=&quot;line-height: 19px;&quot;&gt;&lt;span style=&quot;color: #d2a8ff;&quot;&gt;cleanup&lt;/span&gt;()&lt;/div&gt;&lt;/div&gt;&lt;p style=&quot;margin:0px;margin-left:8px;&quot;&gt;&lt;span style=&quot;color: rgb(121, 192, 255); background-color: rgb(13, 17, 23); font-family: &amp;quot;Droid Sans Mono&amp;quot;, &amp;quot;monospace&amp;quot;, monospace; font-size: 14px; white-space: pre;&quot;&gt;&lt;br&gt;&lt;/span&gt;&lt;/p&gt;" style="verticalAlign=top;align=left;overflow=fill;html=1;whiteSpace=wrap;" vertex="1" parent="1">
          <mxGeometry x="-490" y="492" width="730" height="330" as="geometry" />
        </mxCell>
        <mxCell id="MVKbvdrMA4UdsX5ZscEp-15" value="Cache Registry" style="swimlane;fontStyle=0;childLayout=stackLayout;horizontal=1;startSize=26;fillColor=none;horizontalStack=0;resizeParent=1;resizeParentMax=0;resizeLast=0;collapsible=1;marginBottom=0;whiteSpace=wrap;html=1;" vertex="1" parent="1">
          <mxGeometry x="580" y="830" width="600" height="142" as="geometry" />
        </mxCell>
        <mxCell id="MVKbvdrMA4UdsX5ZscEp-16" value="+&lt;span style=&quot;font-family: &amp;quot;Droid Sans Mono&amp;quot;, &amp;quot;monospace&amp;quot;, monospace; font-size: 14px; white-space: pre; color: rgb(236, 142, 44);&quot;&gt;private&lt;/span&gt;&lt;span style=&quot;background-color: rgb(13, 17, 23); color: rgb(201, 209, 217); font-family: &amp;quot;Droid Sans Mono&amp;quot;, &amp;quot;monospace&amp;quot;, monospace; font-size: 14px; white-space: pre;&quot;&gt; &lt;/span&gt;&lt;span style=&quot;font-family: &amp;quot;Droid Sans Mono&amp;quot;, &amp;quot;monospace&amp;quot;, monospace; font-size: 14px; white-space: pre; color: rgb(236, 142, 44);&quot;&gt;static&lt;/span&gt;&lt;span style=&quot;background-color: rgb(13, 17, 23); color: rgb(201, 209, 217); font-family: &amp;quot;Droid Sans Mono&amp;quot;, &amp;quot;monospace&amp;quot;, monospace; font-size: 14px; white-space: pre;&quot;&gt; &lt;/span&gt;&lt;span style=&quot;background-color: rgb(13, 17, 23); color: rgb(201, 209, 217); font-family: &amp;quot;Droid Sans Mono&amp;quot;, &amp;quot;monospace&amp;quot;, monospace; font-size: 14px; white-space: pre;&quot;&gt;caches&lt;/span&gt;&lt;span style=&quot;font-family: &amp;quot;Droid Sans Mono&amp;quot;, &amp;quot;monospace&amp;quot;, monospace; font-size: 14px; white-space: pre; color: rgb(236, 142, 44);&quot;&gt;:&lt;/span&gt;&lt;span style=&quot;background-color: rgb(13, 17, 23); color: rgb(201, 209, 217); font-family: &amp;quot;Droid Sans Mono&amp;quot;, &amp;quot;monospace&amp;quot;, monospace; font-size: 14px; white-space: pre;&quot;&gt; &lt;/span&gt;&lt;span style=&quot;font-family: &amp;quot;Droid Sans Mono&amp;quot;, &amp;quot;monospace&amp;quot;, monospace; font-size: 14px; white-space: pre; color: rgb(121, 192, 255);&quot;&gt;Map&lt;/span&gt;&lt;span style=&quot;background-color: rgb(13, 17, 23); color: rgb(201, 209, 217); font-family: &amp;quot;Droid Sans Mono&amp;quot;, &amp;quot;monospace&amp;quot;, monospace; font-size: 14px; white-space: pre;&quot;&gt;&amp;lt;&lt;/span&gt;&lt;span style=&quot;font-family: &amp;quot;Droid Sans Mono&amp;quot;, &amp;quot;monospace&amp;quot;, monospace; font-size: 14px; white-space: pre; color: rgb(121, 192, 255);&quot;&gt;string&lt;/span&gt;&lt;span style=&quot;background-color: rgb(13, 17, 23); color: rgb(201, 209, 217); font-family: &amp;quot;Droid Sans Mono&amp;quot;, &amp;quot;monospace&amp;quot;, monospace; font-size: 14px; white-space: pre;&quot;&gt;, &lt;/span&gt;&lt;span style=&quot;font-family: &amp;quot;Droid Sans Mono&amp;quot;, &amp;quot;monospace&amp;quot;, monospace; font-size: 14px; white-space: pre; color: rgb(253, 172, 84);&quot;&gt;CacheManager&lt;/span&gt;&lt;span style=&quot;background-color: rgb(13, 17, 23); color: rgb(201, 209, 217); font-family: &amp;quot;Droid Sans Mono&amp;quot;, &amp;quot;monospace&amp;quot;, monospace; font-size: 14px; white-space: pre;&quot;&gt;&amp;lt;&lt;/span&gt;&lt;span style=&quot;font-family: &amp;quot;Droid Sans Mono&amp;quot;, &amp;quot;monospace&amp;quot;, monospace; font-size: 14px; white-space: pre; color: rgb(121, 192, 255);&quot;&gt;any&lt;/span&gt;&lt;span style=&quot;background-color: rgb(13, 17, 23); color: rgb(201, 209, 217); font-family: &amp;quot;Droid Sans Mono&amp;quot;, &amp;quot;monospace&amp;quot;, monospace; font-size: 14px; white-space: pre;&quot;&gt;&amp;gt;&amp;gt; &lt;/span&gt;&lt;span style=&quot;font-family: &amp;quot;Droid Sans Mono&amp;quot;, &amp;quot;monospace&amp;quot;, monospace; font-size: 14px; white-space: pre; color: rgb(236, 142, 44);&quot;&gt;=&lt;/span&gt;&lt;span style=&quot;background-color: rgb(13, 17, 23); color: rgb(201, 209, 217); font-family: &amp;quot;Droid Sans Mono&amp;quot;, &amp;quot;monospace&amp;quot;, monospace; font-size: 14px; white-space: pre;&quot;&gt; &lt;/span&gt;&lt;span style=&quot;font-family: &amp;quot;Droid Sans Mono&amp;quot;, &amp;quot;monospace&amp;quot;, monospace; font-size: 14px; white-space: pre; color: rgb(236, 142, 44);&quot;&gt;new&lt;/span&gt;&lt;span style=&quot;background-color: rgb(13, 17, 23); color: rgb(201, 209, 217); font-family: &amp;quot;Droid Sans Mono&amp;quot;, &amp;quot;monospace&amp;quot;, monospace; font-size: 14px; white-space: pre;&quot;&gt; &lt;/span&gt;&lt;span style=&quot;font-family: &amp;quot;Droid Sans Mono&amp;quot;, &amp;quot;monospace&amp;quot;, monospace; font-size: 14px; white-space: pre; color: rgb(121, 192, 255);&quot;&gt;Map&lt;/span&gt;&lt;span style=&quot;background-color: rgb(13, 17, 23); color: rgb(201, 209, 217); font-family: &amp;quot;Droid Sans Mono&amp;quot;, &amp;quot;monospace&amp;quot;, monospace; font-size: 14px; white-space: pre;&quot;&gt;();&lt;/span&gt;" style="text;strokeColor=none;fillColor=none;align=left;verticalAlign=top;spacingLeft=4;spacingRight=4;overflow=hidden;rotatable=0;points=[[0,0.5],[1,0.5]];portConstraint=eastwest;whiteSpace=wrap;html=1;" vertex="1" parent="MVKbvdrMA4UdsX5ZscEp-15">
          <mxGeometry y="26" width="600" height="26" as="geometry" />
        </mxCell>
        <mxCell id="MVKbvdrMA4UdsX5ZscEp-17" value="+&amp;nbsp;&lt;span style=&quot;font-family: &amp;quot;Droid Sans Mono&amp;quot;, &amp;quot;monospace&amp;quot;, monospace; font-size: 14px; white-space: pre; color: rgb(236, 142, 44);&quot;&gt;static&lt;/span&gt;&lt;span style=&quot;background-color: rgb(13, 17, 23); color: rgb(201, 209, 217); font-family: &amp;quot;Droid Sans Mono&amp;quot;, &amp;quot;monospace&amp;quot;, monospace; font-size: 14px; white-space: pre;&quot;&gt; &lt;/span&gt;&lt;span style=&quot;font-family: &amp;quot;Droid Sans Mono&amp;quot;, &amp;quot;monospace&amp;quot;, monospace; font-size: 14px; white-space: pre; color: rgb(210, 168, 255);&quot;&gt;register&lt;/span&gt;&lt;span style=&quot;background-color: rgb(13, 17, 23); color: rgb(201, 209, 217); font-family: &amp;quot;Droid Sans Mono&amp;quot;, &amp;quot;monospace&amp;quot;, monospace; font-size: 14px; white-space: pre;&quot;&gt;&amp;lt;&lt;/span&gt;&lt;span style=&quot;font-family: &amp;quot;Droid Sans Mono&amp;quot;, &amp;quot;monospace&amp;quot;, monospace; font-size: 14px; white-space: pre; color: rgb(253, 172, 84);&quot;&gt;T&lt;/span&gt;&lt;span style=&quot;background-color: rgb(13, 17, 23); color: rgb(201, 209, 217); font-family: &amp;quot;Droid Sans Mono&amp;quot;, &amp;quot;monospace&amp;quot;, monospace; font-size: 14px; white-space: pre;&quot;&gt;&amp;gt;(&lt;/span&gt;&lt;span style=&quot;font-family: &amp;quot;Droid Sans Mono&amp;quot;, &amp;quot;monospace&amp;quot;, monospace; font-size: 14px; white-space: pre; color: rgb(253, 172, 84);&quot;&gt;name&lt;/span&gt;&lt;span style=&quot;font-family: &amp;quot;Droid Sans Mono&amp;quot;, &amp;quot;monospace&amp;quot;, monospace; font-size: 14px; white-space: pre; color: rgb(236, 142, 44);&quot;&gt;:&lt;/span&gt;&lt;span style=&quot;background-color: rgb(13, 17, 23); color: rgb(201, 209, 217); font-family: &amp;quot;Droid Sans Mono&amp;quot;, &amp;quot;monospace&amp;quot;, monospace; font-size: 14px; white-space: pre;&quot;&gt; &lt;/span&gt;&lt;span style=&quot;font-family: &amp;quot;Droid Sans Mono&amp;quot;, &amp;quot;monospace&amp;quot;, monospace; font-size: 14px; white-space: pre; color: rgb(121, 192, 255);&quot;&gt;string&lt;/span&gt;&lt;span style=&quot;background-color: rgb(13, 17, 23); color: rgb(201, 209, 217); font-family: &amp;quot;Droid Sans Mono&amp;quot;, &amp;quot;monospace&amp;quot;, monospace; font-size: 14px; white-space: pre;&quot;&gt;, &lt;/span&gt;&lt;span style=&quot;font-family: &amp;quot;Droid Sans Mono&amp;quot;, &amp;quot;monospace&amp;quot;, monospace; font-size: 14px; white-space: pre; color: rgb(253, 172, 84);&quot;&gt;cache&lt;/span&gt;&lt;span style=&quot;font-family: &amp;quot;Droid Sans Mono&amp;quot;, &amp;quot;monospace&amp;quot;, monospace; font-size: 14px; white-space: pre; color: rgb(236, 142, 44);&quot;&gt;:&lt;/span&gt;&lt;span style=&quot;background-color: rgb(13, 17, 23); color: rgb(201, 209, 217); font-family: &amp;quot;Droid Sans Mono&amp;quot;, &amp;quot;monospace&amp;quot;, monospace; font-size: 14px; white-space: pre;&quot;&gt; &lt;/span&gt;&lt;span style=&quot;font-family: &amp;quot;Droid Sans Mono&amp;quot;, &amp;quot;monospace&amp;quot;, monospace; font-size: 14px; white-space: pre; color: rgb(253, 172, 84);&quot;&gt;CacheManager&lt;/span&gt;&lt;span style=&quot;background-color: rgb(13, 17, 23); color: rgb(201, 209, 217); font-family: &amp;quot;Droid Sans Mono&amp;quot;, &amp;quot;monospace&amp;quot;, monospace; font-size: 14px; white-space: pre;&quot;&gt;&amp;lt;&lt;/span&gt;&lt;span style=&quot;font-family: &amp;quot;Droid Sans Mono&amp;quot;, &amp;quot;monospace&amp;quot;, monospace; font-size: 14px; white-space: pre; color: rgb(253, 172, 84);&quot;&gt;T&lt;/span&gt;&lt;span style=&quot;background-color: rgb(13, 17, 23); color: rgb(201, 209, 217); font-family: &amp;quot;Droid Sans Mono&amp;quot;, &amp;quot;monospace&amp;quot;, monospace; font-size: 14px; white-space: pre;&quot;&gt;&amp;gt;)&lt;/span&gt;" style="text;strokeColor=none;fillColor=none;align=left;verticalAlign=top;spacingLeft=4;spacingRight=4;overflow=hidden;rotatable=0;points=[[0,0.5],[1,0.5]];portConstraint=eastwest;whiteSpace=wrap;html=1;" vertex="1" parent="MVKbvdrMA4UdsX5ZscEp-15">
          <mxGeometry y="52" width="600" height="26" as="geometry" />
        </mxCell>
        <mxCell id="MVKbvdrMA4UdsX5ZscEp-18" value="+&amp;nbsp;&lt;span style=&quot;font-family: &amp;quot;Droid Sans Mono&amp;quot;, &amp;quot;monospace&amp;quot;, monospace; font-size: 14px; white-space: pre; color: rgb(236, 142, 44);&quot;&gt;static&lt;/span&gt;&lt;span style=&quot;background-color: rgb(13, 17, 23); color: rgb(201, 209, 217); font-family: &amp;quot;Droid Sans Mono&amp;quot;, &amp;quot;monospace&amp;quot;, monospace; font-size: 14px; white-space: pre;&quot;&gt; &lt;/span&gt;&lt;span style=&quot;font-family: &amp;quot;Droid Sans Mono&amp;quot;, &amp;quot;monospace&amp;quot;, monospace; font-size: 14px; white-space: pre; color: rgb(210, 168, 255);&quot;&gt;get&lt;/span&gt;&lt;span style=&quot;background-color: rgb(13, 17, 23); color: rgb(201, 209, 217); font-family: &amp;quot;Droid Sans Mono&amp;quot;, &amp;quot;monospace&amp;quot;, monospace; font-size: 14px; white-space: pre;&quot;&gt;&amp;lt;&lt;/span&gt;&lt;span style=&quot;font-family: &amp;quot;Droid Sans Mono&amp;quot;, &amp;quot;monospace&amp;quot;, monospace; font-size: 14px; white-space: pre; color: rgb(253, 172, 84);&quot;&gt;T&lt;/span&gt;&lt;span style=&quot;background-color: rgb(13, 17, 23); color: rgb(201, 209, 217); font-family: &amp;quot;Droid Sans Mono&amp;quot;, &amp;quot;monospace&amp;quot;, monospace; font-size: 14px; white-space: pre;&quot;&gt;&amp;gt;(&lt;/span&gt;&lt;span style=&quot;font-family: &amp;quot;Droid Sans Mono&amp;quot;, &amp;quot;monospace&amp;quot;, monospace; font-size: 14px; white-space: pre; color: rgb(253, 172, 84);&quot;&gt;name&lt;/span&gt;&lt;span style=&quot;font-family: &amp;quot;Droid Sans Mono&amp;quot;, &amp;quot;monospace&amp;quot;, monospace; font-size: 14px; white-space: pre; color: rgb(236, 142, 44);&quot;&gt;:&lt;/span&gt;&lt;span style=&quot;background-color: rgb(13, 17, 23); color: rgb(201, 209, 217); font-family: &amp;quot;Droid Sans Mono&amp;quot;, &amp;quot;monospace&amp;quot;, monospace; font-size: 14px; white-space: pre;&quot;&gt; &lt;/span&gt;&lt;span style=&quot;font-family: &amp;quot;Droid Sans Mono&amp;quot;, &amp;quot;monospace&amp;quot;, monospace; font-size: 14px; white-space: pre; color: rgb(121, 192, 255);&quot;&gt;string&lt;/span&gt;&lt;span style=&quot;background-color: rgb(13, 17, 23); color: rgb(201, 209, 217); font-family: &amp;quot;Droid Sans Mono&amp;quot;, &amp;quot;monospace&amp;quot;, monospace; font-size: 14px; white-space: pre;&quot;&gt;)&lt;/span&gt;&lt;span style=&quot;font-family: &amp;quot;Droid Sans Mono&amp;quot;, &amp;quot;monospace&amp;quot;, monospace; font-size: 14px; white-space: pre; color: rgb(236, 142, 44);&quot;&gt;:&lt;/span&gt;&lt;span style=&quot;background-color: rgb(13, 17, 23); color: rgb(201, 209, 217); font-family: &amp;quot;Droid Sans Mono&amp;quot;, &amp;quot;monospace&amp;quot;, monospace; font-size: 14px; white-space: pre;&quot;&gt; &lt;/span&gt;&lt;span style=&quot;font-family: &amp;quot;Droid Sans Mono&amp;quot;, &amp;quot;monospace&amp;quot;, monospace; font-size: 14px; white-space: pre; color: rgb(253, 172, 84);&quot;&gt;CacheManager&lt;/span&gt;&lt;span style=&quot;background-color: rgb(13, 17, 23); color: rgb(201, 209, 217); font-family: &amp;quot;Droid Sans Mono&amp;quot;, &amp;quot;monospace&amp;quot;, monospace; font-size: 14px; white-space: pre;&quot;&gt;&amp;lt;&lt;/span&gt;&lt;span style=&quot;font-family: &amp;quot;Droid Sans Mono&amp;quot;, &amp;quot;monospace&amp;quot;, monospace; font-size: 14px; white-space: pre; color: rgb(253, 172, 84);&quot;&gt;T&lt;/span&gt;&lt;span style=&quot;background-color: rgb(13, 17, 23); color: rgb(201, 209, 217); font-family: &amp;quot;Droid Sans Mono&amp;quot;, &amp;quot;monospace&amp;quot;, monospace; font-size: 14px; white-space: pre;&quot;&gt;&amp;gt;&lt;/span&gt;" style="text;strokeColor=none;fillColor=none;align=left;verticalAlign=top;spacingLeft=4;spacingRight=4;overflow=hidden;rotatable=0;points=[[0,0.5],[1,0.5]];portConstraint=eastwest;whiteSpace=wrap;html=1;" vertex="1" parent="MVKbvdrMA4UdsX5ZscEp-15">
          <mxGeometry y="78" width="600" height="32" as="geometry" />
        </mxCell>
        <mxCell id="MVKbvdrMA4UdsX5ZscEp-19" value="&lt;div style=&quot;color: rgb(201, 209, 217); background-color: rgb(13, 17, 23); font-family: &amp;quot;Droid Sans Mono&amp;quot;, &amp;quot;monospace&amp;quot;, monospace; font-size: 14px; line-height: 19px; white-space: pre;&quot;&gt;&lt;span style=&quot;color: rgb(236, 142, 44);&quot;&gt;+ static&lt;/span&gt; &lt;span style=&quot;color: rgb(210, 168, 255);&quot;&gt;clearAll&lt;/span&gt;()&lt;/div&gt;" style="text;strokeColor=none;fillColor=none;align=left;verticalAlign=top;spacingLeft=4;spacingRight=4;overflow=hidden;rotatable=0;points=[[0,0.5],[1,0.5]];portConstraint=eastwest;whiteSpace=wrap;html=1;" vertex="1" parent="MVKbvdrMA4UdsX5ZscEp-15">
          <mxGeometry y="110" width="600" height="32" as="geometry" />
        </mxCell>
        <mxCell id="MVKbvdrMA4UdsX5ZscEp-22" value="&lt;div style=&quot;color: rgb(201, 209, 217); background-color: rgb(13, 17, 23); font-family: &amp;quot;Droid Sans Mono&amp;quot;, &amp;quot;monospace&amp;quot;, monospace; font-size: 14px; line-height: 19px; white-space: pre;&quot;&gt;&lt;span style=&quot;color: rgb(253, 172, 84);&quot;&gt;CacheManager&lt;/span&gt;&amp;lt;&lt;span style=&quot;color: rgb(253, 172, 84);&quot;&gt;T&lt;/span&gt;&amp;gt;&lt;/div&gt;" style="swimlane;fontStyle=0;childLayout=stackLayout;horizontal=1;startSize=26;fillColor=none;horizontalStack=0;resizeParent=1;resizeParentMax=0;resizeLast=0;collapsible=1;marginBottom=0;whiteSpace=wrap;html=1;" vertex="1" parent="1">
          <mxGeometry x="1250" y="640" width="680" height="598" as="geometry" />
        </mxCell>
        <mxCell id="MVKbvdrMA4UdsX5ZscEp-23" value="&lt;div style=&quot;color: rgb(201, 209, 217); background-color: rgb(13, 17, 23); font-family: &amp;quot;Droid Sans Mono&amp;quot;, &amp;quot;monospace&amp;quot;, monospace; font-size: 14px; line-height: 19px; white-space: pre;&quot;&gt;&lt;span style=&quot;color: #ec8e2c;&quot;&gt;private&lt;/span&gt; cache&lt;span style=&quot;color: #ec8e2c;&quot;&gt;:&lt;/span&gt; &lt;span style=&quot;color: #79c0ff;&quot;&gt;Map&lt;/span&gt;&amp;lt;&lt;span style=&quot;color: #79c0ff;&quot;&gt;string&lt;/span&gt;, &lt;span style=&quot;color: #fdac54;&quot;&gt;CacheEntry&lt;/span&gt;&amp;lt;&lt;span style=&quot;color: #fdac54;&quot;&gt;T&lt;/span&gt;&amp;gt;&amp;gt;&lt;/div&gt;" style="text;strokeColor=none;fillColor=none;align=left;verticalAlign=top;spacingLeft=4;spacingRight=4;overflow=hidden;rotatable=0;points=[[0,0.5],[1,0.5]];portConstraint=eastwest;whiteSpace=wrap;html=1;" vertex="1" parent="MVKbvdrMA4UdsX5ZscEp-22">
          <mxGeometry y="26" width="680" height="26" as="geometry" />
        </mxCell>
        <mxCell id="MVKbvdrMA4UdsX5ZscEp-24" value="&lt;div style=&quot;color: rgb(201, 209, 217); background-color: rgb(13, 17, 23); font-family: &amp;quot;Droid Sans Mono&amp;quot;, &amp;quot;monospace&amp;quot;, monospace; font-size: 14px; line-height: 19px; white-space: pre;&quot;&gt;&lt;span style=&quot;color: #ec8e2c;&quot;&gt;private&lt;/span&gt; config&lt;span style=&quot;color: #ec8e2c;&quot;&gt;:&lt;/span&gt; &lt;span style=&quot;color: #79c0ff;&quot;&gt;Required&lt;/span&gt;&amp;lt;&lt;span style=&quot;color: #fdac54;&quot;&gt;CacheConfig&lt;/span&gt;&amp;gt;;&lt;/div&gt;" style="text;strokeColor=none;fillColor=none;align=left;verticalAlign=top;spacingLeft=4;spacingRight=4;overflow=hidden;rotatable=0;points=[[0,0.5],[1,0.5]];portConstraint=eastwest;whiteSpace=wrap;html=1;" vertex="1" parent="MVKbvdrMA4UdsX5ZscEp-22">
          <mxGeometry y="52" width="680" height="26" as="geometry" />
        </mxCell>
        <mxCell id="MVKbvdrMA4UdsX5ZscEp-25" value="&lt;div style=&quot;color: rgb(201, 209, 217); background-color: rgb(13, 17, 23); font-family: &amp;quot;Droid Sans Mono&amp;quot;, &amp;quot;monospace&amp;quot;, monospace; font-size: 14px; line-height: 19px; white-space: pre;&quot;&gt;&lt;span style=&quot;color: #ec8e2c;&quot;&gt;private&lt;/span&gt; cleanupInterval&lt;span style=&quot;color: #ec8e2c;&quot;&gt;:&lt;/span&gt; &lt;span style=&quot;color: #fdac54;&quot;&gt;NodeJS&lt;/span&gt;.&lt;span style=&quot;color: #fdac54;&quot;&gt;Timeout&lt;/span&gt; &lt;span style=&quot;color: #ec8e2c;&quot;&gt;|&lt;/span&gt; &lt;span style=&quot;color: #79c0ff;&quot;&gt;null&lt;/span&gt; &lt;span style=&quot;color: #ec8e2c;&quot;&gt;=&lt;/span&gt; &lt;span style=&quot;color: #79c0ff;&quot;&gt;null&lt;/span&gt;;&lt;/div&gt;" style="text;strokeColor=none;fillColor=none;align=left;verticalAlign=top;spacingLeft=4;spacingRight=4;overflow=hidden;rotatable=0;points=[[0,0.5],[1,0.5]];portConstraint=eastwest;whiteSpace=wrap;html=1;" vertex="1" parent="MVKbvdrMA4UdsX5ZscEp-22">
          <mxGeometry y="78" width="680" height="26" as="geometry" />
        </mxCell>
        <mxCell id="MVKbvdrMA4UdsX5ZscEp-27" value="&lt;div style=&quot;color: rgb(201, 209, 217); background-color: rgb(13, 17, 23); font-family: &amp;quot;Droid Sans Mono&amp;quot;, &amp;quot;monospace&amp;quot;, monospace; font-size: 14px; line-height: 19px; white-space: pre;&quot;&gt;&lt;div style=&quot;line-height: 19px;&quot;&gt;&lt;div&gt;&lt;span style=&quot;color: #ec8e2c;&quot;&gt;private&lt;/span&gt; stats&lt;span style=&quot;color: #ec8e2c;&quot;&gt;:&lt;/span&gt; &lt;span style=&quot;color: #fdac54;&quot;&gt;CacheStats&lt;/span&gt;;&lt;/div&gt;&lt;br&gt;&lt;/div&gt;&lt;/div&gt;" style="text;strokeColor=none;fillColor=none;align=left;verticalAlign=top;spacingLeft=4;spacingRight=4;overflow=hidden;rotatable=0;points=[[0,0.5],[1,0.5]];portConstraint=eastwest;whiteSpace=wrap;html=1;" vertex="1" parent="MVKbvdrMA4UdsX5ZscEp-22">
          <mxGeometry y="104" width="680" height="26" as="geometry" />
        </mxCell>
        <mxCell id="MVKbvdrMA4UdsX5ZscEp-37" value="&lt;div style=&quot;color: rgb(201, 209, 217); background-color: rgb(13, 17, 23); font-family: &amp;quot;Droid Sans Mono&amp;quot;, &amp;quot;monospace&amp;quot;, monospace; font-size: 14px; line-height: 19px; white-space: pre;&quot;&gt;&lt;div style=&quot;line-height: 19px;&quot;&gt;&lt;div style=&quot;line-height: 19px;&quot;&gt;&lt;br&gt;&lt;/div&gt;&lt;/div&gt;&lt;/div&gt;" style="text;strokeColor=none;fillColor=none;align=left;verticalAlign=top;spacingLeft=4;spacingRight=4;overflow=hidden;rotatable=0;points=[[0,0.5],[1,0.5]];portConstraint=eastwest;whiteSpace=wrap;html=1;" vertex="1" parent="MVKbvdrMA4UdsX5ZscEp-22">
          <mxGeometry y="130" width="680" height="26" as="geometry" />
        </mxCell>
        <mxCell id="MVKbvdrMA4UdsX5ZscEp-38" value="&lt;div style=&quot;color: rgb(201, 209, 217); background-color: rgb(13, 17, 23); font-family: &amp;quot;Droid Sans Mono&amp;quot;, &amp;quot;monospace&amp;quot;, monospace; font-size: 14px; line-height: 19px; white-space: pre;&quot;&gt;&lt;div style=&quot;line-height: 19px;&quot;&gt;&lt;div&gt;&lt;div style=&quot;line-height: 19px;&quot;&gt;&lt;span style=&quot;color: #ec8e2c;&quot;&gt;constructor&lt;/span&gt;(&lt;span style=&quot;color: #fdac54;&quot;&gt;config&lt;/span&gt;&lt;span style=&quot;color: #ec8e2c;&quot;&gt;:&lt;/span&gt; &lt;span style=&quot;color: #fdac54;&quot;&gt;CacheConfig&lt;/span&gt; &lt;span style=&quot;color: #ec8e2c;&quot;&gt;=&lt;/span&gt; {})&lt;/div&gt;&lt;/div&gt;&lt;/div&gt;&lt;/div&gt;" style="text;strokeColor=none;fillColor=none;align=left;verticalAlign=top;spacingLeft=4;spacingRight=4;overflow=hidden;rotatable=0;points=[[0,0.5],[1,0.5]];portConstraint=eastwest;whiteSpace=wrap;html=1;" vertex="1" parent="MVKbvdrMA4UdsX5ZscEp-22">
          <mxGeometry y="156" width="680" height="26" as="geometry" />
        </mxCell>
        <mxCell id="MVKbvdrMA4UdsX5ZscEp-59" value="&lt;div style=&quot;color: rgb(201, 209, 217); background-color: rgb(13, 17, 23); font-family: &amp;quot;Droid Sans Mono&amp;quot;, &amp;quot;monospace&amp;quot;, monospace; font-size: 14px; line-height: 19px; white-space: pre;&quot;&gt;&lt;div style=&quot;line-height: 19px;&quot;&gt;&lt;div style=&quot;line-height: 19px;&quot;&gt;&lt;div style=&quot;line-height: 19px;&quot;&gt;&lt;span style=&quot;color: #ec8e2c;&quot;&gt;private&lt;/span&gt; &lt;span style=&quot;color: #d2a8ff;&quot;&gt;initializeStats&lt;/span&gt;()&lt;span style=&quot;color: #ec8e2c;&quot;&gt;:&lt;/span&gt; &lt;span style=&quot;color: #fdac54;&quot;&gt;CacheStats&lt;/span&gt;&lt;/div&gt;&lt;/div&gt;&lt;/div&gt;&lt;/div&gt;" style="text;strokeColor=none;fillColor=none;align=left;verticalAlign=top;spacingLeft=4;spacingRight=4;overflow=hidden;rotatable=0;points=[[0,0.5],[1,0.5]];portConstraint=eastwest;whiteSpace=wrap;html=1;" vertex="1" parent="MVKbvdrMA4UdsX5ZscEp-22">
          <mxGeometry y="182" width="680" height="26" as="geometry" />
        </mxCell>
        <mxCell id="MVKbvdrMA4UdsX5ZscEp-60" value="&lt;div style=&quot;color: rgb(201, 209, 217); background-color: rgb(13, 17, 23); font-family: &amp;quot;Droid Sans Mono&amp;quot;, &amp;quot;monospace&amp;quot;, monospace; font-size: 14px; line-height: 19px; white-space: pre;&quot;&gt;&lt;div style=&quot;line-height: 19px;&quot;&gt;&lt;div style=&quot;line-height: 19px;&quot;&gt;&lt;div style=&quot;line-height: 19px;&quot;&gt;&lt;div style=&quot;line-height: 19px;&quot;&gt;&lt;span style=&quot;color: #ec8e2c;&quot;&gt;private&lt;/span&gt; &lt;span style=&quot;color: #d2a8ff;&quot;&gt;initializeCleanup&lt;/span&gt;()&lt;span style=&quot;color: #ec8e2c;&quot;&gt;:&lt;/span&gt; &lt;span style=&quot;color: #79c0ff;&quot;&gt;void&lt;/span&gt;&lt;/div&gt;&lt;/div&gt;&lt;/div&gt;&lt;/div&gt;&lt;/div&gt;" style="text;strokeColor=none;fillColor=none;align=left;verticalAlign=top;spacingLeft=4;spacingRight=4;overflow=hidden;rotatable=0;points=[[0,0.5],[1,0.5]];portConstraint=eastwest;whiteSpace=wrap;html=1;" vertex="1" parent="MVKbvdrMA4UdsX5ZscEp-22">
          <mxGeometry y="208" width="680" height="26" as="geometry" />
        </mxCell>
        <mxCell id="MVKbvdrMA4UdsX5ZscEp-61" value="&lt;div style=&quot;color: rgb(201, 209, 217); background-color: rgb(13, 17, 23); font-family: &amp;quot;Droid Sans Mono&amp;quot;, &amp;quot;monospace&amp;quot;, monospace; font-size: 14px; line-height: 19px; white-space: pre;&quot;&gt;&lt;div style=&quot;line-height: 19px;&quot;&gt;&lt;div style=&quot;line-height: 19px;&quot;&gt;&lt;div style=&quot;line-height: 19px;&quot;&gt;&lt;div style=&quot;line-height: 19px;&quot;&gt;&lt;div style=&quot;line-height: 19px;&quot;&gt;&lt;span style=&quot;color: #ec8e2c;&quot;&gt;public&lt;/span&gt; &lt;span style=&quot;color: #d2a8ff;&quot;&gt;get&lt;/span&gt;(&lt;span style=&quot;color: #fdac54;&quot;&gt;key&lt;/span&gt;&lt;span style=&quot;color: #ec8e2c;&quot;&gt;:&lt;/span&gt; &lt;span style=&quot;color: #79c0ff;&quot;&gt;string&lt;/span&gt;)&lt;span style=&quot;color: #ec8e2c;&quot;&gt;:&lt;/span&gt; &lt;span style=&quot;color: #fdac54;&quot;&gt;T&lt;/span&gt; &lt;span style=&quot;color: #ec8e2c;&quot;&gt;|&lt;/span&gt; &lt;span style=&quot;color: #79c0ff;&quot;&gt;null&lt;/span&gt;&lt;/div&gt;&lt;/div&gt;&lt;/div&gt;&lt;/div&gt;&lt;/div&gt;&lt;/div&gt;" style="text;strokeColor=none;fillColor=none;align=left;verticalAlign=top;spacingLeft=4;spacingRight=4;overflow=hidden;rotatable=0;points=[[0,0.5],[1,0.5]];portConstraint=eastwest;whiteSpace=wrap;html=1;" vertex="1" parent="MVKbvdrMA4UdsX5ZscEp-22">
          <mxGeometry y="234" width="680" height="26" as="geometry" />
        </mxCell>
        <mxCell id="MVKbvdrMA4UdsX5ZscEp-62" value="&lt;div style=&quot;color: rgb(201, 209, 217); background-color: rgb(13, 17, 23); font-family: &amp;quot;Droid Sans Mono&amp;quot;, &amp;quot;monospace&amp;quot;, monospace; font-size: 14px; line-height: 19px; white-space: pre;&quot;&gt;&lt;div style=&quot;line-height: 19px;&quot;&gt;&lt;div style=&quot;line-height: 19px;&quot;&gt;&lt;div style=&quot;line-height: 19px;&quot;&gt;&lt;div style=&quot;line-height: 19px;&quot;&gt;&lt;div style=&quot;line-height: 19px;&quot;&gt;&lt;div style=&quot;line-height: 19px;&quot;&gt;&lt;span style=&quot;color: #ec8e2c;&quot;&gt;public&lt;/span&gt; &lt;span style=&quot;color: #d2a8ff;&quot;&gt;set&lt;/span&gt;(&lt;span style=&quot;color: #fdac54;&quot;&gt;key&lt;/span&gt;&lt;span style=&quot;color: #ec8e2c;&quot;&gt;:&lt;/span&gt; &lt;span style=&quot;color: #79c0ff;&quot;&gt;string&lt;/span&gt;, &lt;span style=&quot;color: #fdac54;&quot;&gt;data&lt;/span&gt;&lt;span style=&quot;color: #ec8e2c;&quot;&gt;:&lt;/span&gt; &lt;span style=&quot;color: #fdac54;&quot;&gt;T&lt;/span&gt;)&lt;span style=&quot;color: #ec8e2c;&quot;&gt;:&lt;/span&gt; &lt;span style=&quot;color: #79c0ff;&quot;&gt;void&lt;/span&gt;&lt;/div&gt;&lt;/div&gt;&lt;/div&gt;&lt;/div&gt;&lt;/div&gt;&lt;/div&gt;&lt;/div&gt;" style="text;strokeColor=none;fillColor=none;align=left;verticalAlign=top;spacingLeft=4;spacingRight=4;overflow=hidden;rotatable=0;points=[[0,0.5],[1,0.5]];portConstraint=eastwest;whiteSpace=wrap;html=1;" vertex="1" parent="MVKbvdrMA4UdsX5ZscEp-22">
          <mxGeometry y="260" width="680" height="26" as="geometry" />
        </mxCell>
        <mxCell id="MVKbvdrMA4UdsX5ZscEp-63" value="&lt;div style=&quot;color: rgb(201, 209, 217); background-color: rgb(13, 17, 23); font-family: &amp;quot;Droid Sans Mono&amp;quot;, &amp;quot;monospace&amp;quot;, monospace; font-size: 14px; line-height: 19px; white-space: pre;&quot;&gt;&lt;div style=&quot;line-height: 19px;&quot;&gt;&lt;div style=&quot;line-height: 19px;&quot;&gt;&lt;div style=&quot;line-height: 19px;&quot;&gt;&lt;div style=&quot;line-height: 19px;&quot;&gt;&lt;div style=&quot;line-height: 19px;&quot;&gt;&lt;div style=&quot;line-height: 19px;&quot;&gt;&lt;div style=&quot;line-height: 19px;&quot;&gt;&lt;span style=&quot;color: #ec8e2c;&quot;&gt;public&lt;/span&gt; &lt;span style=&quot;color: #d2a8ff;&quot;&gt;has&lt;/span&gt;(&lt;span style=&quot;color: #fdac54;&quot;&gt;key&lt;/span&gt;&lt;span style=&quot;color: #ec8e2c;&quot;&gt;:&lt;/span&gt; &lt;span style=&quot;color: #79c0ff;&quot;&gt;string&lt;/span&gt;)&lt;span style=&quot;color: #ec8e2c;&quot;&gt;:&lt;/span&gt; &lt;span style=&quot;color: #79c0ff;&quot;&gt;boolean&lt;/span&gt;&lt;/div&gt;&lt;/div&gt;&lt;/div&gt;&lt;/div&gt;&lt;/div&gt;&lt;/div&gt;&lt;/div&gt;&lt;/div&gt;" style="text;strokeColor=none;fillColor=none;align=left;verticalAlign=top;spacingLeft=4;spacingRight=4;overflow=hidden;rotatable=0;points=[[0,0.5],[1,0.5]];portConstraint=eastwest;whiteSpace=wrap;html=1;" vertex="1" parent="MVKbvdrMA4UdsX5ZscEp-22">
          <mxGeometry y="286" width="680" height="26" as="geometry" />
        </mxCell>
        <mxCell id="MVKbvdrMA4UdsX5ZscEp-64" value="&lt;div style=&quot;color: rgb(201, 209, 217); background-color: rgb(13, 17, 23); font-family: &amp;quot;Droid Sans Mono&amp;quot;, &amp;quot;monospace&amp;quot;, monospace; font-size: 14px; line-height: 19px; white-space: pre;&quot;&gt;&lt;div style=&quot;line-height: 19px;&quot;&gt;&lt;div style=&quot;line-height: 19px;&quot;&gt;&lt;div style=&quot;line-height: 19px;&quot;&gt;&lt;div style=&quot;line-height: 19px;&quot;&gt;&lt;div style=&quot;line-height: 19px;&quot;&gt;&lt;div style=&quot;line-height: 19px;&quot;&gt;&lt;div style=&quot;line-height: 19px;&quot;&gt;&lt;div style=&quot;line-height: 19px;&quot;&gt;&lt;span style=&quot;color: #ec8e2c;&quot;&gt;public&lt;/span&gt; &lt;span style=&quot;color: #d2a8ff;&quot;&gt;delete&lt;/span&gt;(&lt;span style=&quot;color: #fdac54;&quot;&gt;key&lt;/span&gt;&lt;span style=&quot;color: #ec8e2c;&quot;&gt;:&lt;/span&gt; &lt;span style=&quot;color: #79c0ff;&quot;&gt;string&lt;/span&gt;)&lt;span style=&quot;color: #ec8e2c;&quot;&gt;:&lt;/span&gt; &lt;span style=&quot;color: #79c0ff;&quot;&gt;boolean&lt;/span&gt;&lt;/div&gt;&lt;/div&gt;&lt;/div&gt;&lt;/div&gt;&lt;/div&gt;&lt;/div&gt;&lt;/div&gt;&lt;/div&gt;&lt;/div&gt;" style="text;strokeColor=none;fillColor=none;align=left;verticalAlign=top;spacingLeft=4;spacingRight=4;overflow=hidden;rotatable=0;points=[[0,0.5],[1,0.5]];portConstraint=eastwest;whiteSpace=wrap;html=1;" vertex="1" parent="MVKbvdrMA4UdsX5ZscEp-22">
          <mxGeometry y="312" width="680" height="26" as="geometry" />
        </mxCell>
        <mxCell id="MVKbvdrMA4UdsX5ZscEp-78" value="&lt;div style=&quot;color: rgb(201, 209, 217); background-color: rgb(13, 17, 23); font-family: &amp;quot;Droid Sans Mono&amp;quot;, &amp;quot;monospace&amp;quot;, monospace; font-size: 14px; line-height: 19px; white-space: pre;&quot;&gt;&lt;div style=&quot;line-height: 19px;&quot;&gt;&lt;div style=&quot;line-height: 19px;&quot;&gt;&lt;div style=&quot;line-height: 19px;&quot;&gt;&lt;div style=&quot;line-height: 19px;&quot;&gt;&lt;div style=&quot;line-height: 19px;&quot;&gt;&lt;div style=&quot;line-height: 19px;&quot;&gt;&lt;div style=&quot;line-height: 19px;&quot;&gt;&lt;div style=&quot;line-height: 19px;&quot;&gt;&lt;div style=&quot;line-height: 19px;&quot;&gt;&lt;span style=&quot;color: #ec8e2c;&quot;&gt;public&lt;/span&gt; &lt;span style=&quot;color: #d2a8ff;&quot;&gt;clear&lt;/span&gt;()&lt;span style=&quot;color: #ec8e2c;&quot;&gt;:&lt;/span&gt; &lt;span style=&quot;color: #79c0ff;&quot;&gt;void&lt;/span&gt;&lt;/div&gt;&lt;/div&gt;&lt;/div&gt;&lt;/div&gt;&lt;/div&gt;&lt;/div&gt;&lt;/div&gt;&lt;/div&gt;&lt;/div&gt;&lt;/div&gt;" style="text;strokeColor=none;fillColor=none;align=left;verticalAlign=top;spacingLeft=4;spacingRight=4;overflow=hidden;rotatable=0;points=[[0,0.5],[1,0.5]];portConstraint=eastwest;whiteSpace=wrap;html=1;" vertex="1" parent="MVKbvdrMA4UdsX5ZscEp-22">
          <mxGeometry y="338" width="680" height="26" as="geometry" />
        </mxCell>
        <mxCell id="MVKbvdrMA4UdsX5ZscEp-79" value="&lt;div style=&quot;color: rgb(201, 209, 217); background-color: rgb(13, 17, 23); font-family: &amp;quot;Droid Sans Mono&amp;quot;, &amp;quot;monospace&amp;quot;, monospace; font-size: 14px; line-height: 19px; white-space: pre;&quot;&gt;&lt;div style=&quot;line-height: 19px;&quot;&gt;&lt;div style=&quot;line-height: 19px;&quot;&gt;&lt;div style=&quot;line-height: 19px;&quot;&gt;&lt;div style=&quot;line-height: 19px;&quot;&gt;&lt;div style=&quot;line-height: 19px;&quot;&gt;&lt;div style=&quot;line-height: 19px;&quot;&gt;&lt;div style=&quot;line-height: 19px;&quot;&gt;&lt;div style=&quot;line-height: 19px;&quot;&gt;&lt;div style=&quot;line-height: 19px;&quot;&gt;&lt;div style=&quot;line-height: 19px;&quot;&gt;&lt;span style=&quot;color: rgb(236, 142, 44);&quot;&gt;public&lt;/span&gt; &lt;span style=&quot;color: rgb(236, 142, 44);&quot;&gt;async&lt;/span&gt; &lt;span style=&quot;color: rgb(210, 168, 255);&quot;&gt;getOrSet&lt;/span&gt;&amp;lt;&lt;span style=&quot;color: rgb(253, 172, 84);&quot;&gt;K&lt;/span&gt;&amp;gt; //&lt;span style=&quot;color: rgb(139, 148, 158); background-color: light-dark(rgb(13, 17, 23), rgb(220, 223, 229));&quot;&gt; Get or set pattern - useful for lazy loading&lt;/span&gt;&lt;/div&gt;&lt;/div&gt;&lt;/div&gt;&lt;/div&gt;&lt;/div&gt;&lt;/div&gt;&lt;/div&gt;&lt;/div&gt;&lt;/div&gt;&lt;/div&gt;&lt;/div&gt;" style="text;strokeColor=none;fillColor=none;align=left;verticalAlign=top;spacingLeft=4;spacingRight=4;overflow=hidden;rotatable=0;points=[[0,0.5],[1,0.5]];portConstraint=eastwest;whiteSpace=wrap;html=1;" vertex="1" parent="MVKbvdrMA4UdsX5ZscEp-22">
          <mxGeometry y="364" width="680" height="26" as="geometry" />
        </mxCell>
        <mxCell id="MVKbvdrMA4UdsX5ZscEp-80" value="&lt;div style=&quot;color: rgb(201, 209, 217); background-color: rgb(13, 17, 23); font-family: &amp;quot;Droid Sans Mono&amp;quot;, &amp;quot;monospace&amp;quot;, monospace; font-size: 14px; line-height: 19px; white-space: pre;&quot;&gt;&lt;div style=&quot;line-height: 19px;&quot;&gt;&lt;div style=&quot;line-height: 19px;&quot;&gt;&lt;div style=&quot;line-height: 19px;&quot;&gt;&lt;div style=&quot;line-height: 19px;&quot;&gt;&lt;div style=&quot;line-height: 19px;&quot;&gt;&lt;div style=&quot;line-height: 19px;&quot;&gt;&lt;div style=&quot;line-height: 19px;&quot;&gt;&lt;div style=&quot;line-height: 19px;&quot;&gt;&lt;div style=&quot;line-height: 19px;&quot;&gt;&lt;div style=&quot;line-height: 19px;&quot;&gt;&lt;div style=&quot;line-height: 19px;&quot;&gt;&lt;span style=&quot;color: rgb(236, 142, 44);&quot;&gt;private&lt;/span&gt; &lt;span style=&quot;color: rgb(210, 168, 255);&quot;&gt;evictLRU&lt;/span&gt;()&lt;span style=&quot;color: rgb(236, 142, 44);&quot;&gt;:&lt;/span&gt; &lt;span style=&quot;color: rgb(121, 192, 255);&quot;&gt;void //&lt;/span&gt;&lt;span style=&quot;color: rgb(139, 148, 158); background-color: light-dark(rgb(13, 17, 23), rgb(220, 223, 229));&quot;&gt;Evict least recently used entry&lt;/span&gt;&lt;/div&gt;&lt;/div&gt;&lt;/div&gt;&lt;/div&gt;&lt;/div&gt;&lt;/div&gt;&lt;/div&gt;&lt;/div&gt;&lt;/div&gt;&lt;/div&gt;&lt;/div&gt;&lt;/div&gt;" style="text;strokeColor=none;fillColor=none;align=left;verticalAlign=top;spacingLeft=4;spacingRight=4;overflow=hidden;rotatable=0;points=[[0,0.5],[1,0.5]];portConstraint=eastwest;whiteSpace=wrap;html=1;" vertex="1" parent="MVKbvdrMA4UdsX5ZscEp-22">
          <mxGeometry y="390" width="680" height="26" as="geometry" />
        </mxCell>
        <mxCell id="MVKbvdrMA4UdsX5ZscEp-81" value="&lt;div style=&quot;color: rgb(201, 209, 217); background-color: rgb(13, 17, 23); font-family: &amp;quot;Droid Sans Mono&amp;quot;, &amp;quot;monospace&amp;quot;, monospace; font-size: 14px; line-height: 19px; white-space: pre;&quot;&gt;&lt;div style=&quot;line-height: 19px;&quot;&gt;&lt;div style=&quot;line-height: 19px;&quot;&gt;&lt;div style=&quot;line-height: 19px;&quot;&gt;&lt;div style=&quot;line-height: 19px;&quot;&gt;&lt;div style=&quot;line-height: 19px;&quot;&gt;&lt;div style=&quot;line-height: 19px;&quot;&gt;&lt;div style=&quot;line-height: 19px;&quot;&gt;&lt;div style=&quot;line-height: 19px;&quot;&gt;&lt;div style=&quot;line-height: 19px;&quot;&gt;&lt;div style=&quot;line-height: 19px;&quot;&gt;&lt;div style=&quot;line-height: 19px;&quot;&gt;&lt;div style=&quot;line-height: 19px;&quot;&gt;&lt;span style=&quot;color: #ec8e2c;&quot;&gt;private&lt;/span&gt; &lt;span style=&quot;color: #d2a8ff;&quot;&gt;cleanup&lt;/span&gt;()&lt;span style=&quot;color: #ec8e2c;&quot;&gt;:&lt;/span&gt; &lt;span style=&quot;color: #79c0ff;&quot;&gt;void&lt;/span&gt; &lt;/div&gt;&lt;/div&gt;&lt;/div&gt;&lt;/div&gt;&lt;/div&gt;&lt;/div&gt;&lt;/div&gt;&lt;/div&gt;&lt;/div&gt;&lt;/div&gt;&lt;/div&gt;&lt;/div&gt;&lt;/div&gt;" style="text;strokeColor=none;fillColor=none;align=left;verticalAlign=top;spacingLeft=4;spacingRight=4;overflow=hidden;rotatable=0;points=[[0,0.5],[1,0.5]];portConstraint=eastwest;whiteSpace=wrap;html=1;" vertex="1" parent="MVKbvdrMA4UdsX5ZscEp-22">
          <mxGeometry y="416" width="680" height="26" as="geometry" />
        </mxCell>
        <mxCell id="MVKbvdrMA4UdsX5ZscEp-82" value="&lt;div style=&quot;color: rgb(201, 209, 217); background-color: rgb(13, 17, 23); font-family: &amp;quot;Droid Sans Mono&amp;quot;, &amp;quot;monospace&amp;quot;, monospace; font-size: 14px; line-height: 19px; white-space: pre;&quot;&gt;&lt;div style=&quot;line-height: 19px;&quot;&gt;&lt;div style=&quot;line-height: 19px;&quot;&gt;&lt;div style=&quot;line-height: 19px;&quot;&gt;&lt;div style=&quot;line-height: 19px;&quot;&gt;&lt;div style=&quot;line-height: 19px;&quot;&gt;&lt;div style=&quot;line-height: 19px;&quot;&gt;&lt;div style=&quot;line-height: 19px;&quot;&gt;&lt;div style=&quot;line-height: 19px;&quot;&gt;&lt;div style=&quot;line-height: 19px;&quot;&gt;&lt;div style=&quot;line-height: 19px;&quot;&gt;&lt;div style=&quot;line-height: 19px;&quot;&gt;&lt;div style=&quot;line-height: 19px;&quot;&gt;&lt;div style=&quot;line-height: 19px;&quot;&gt;&lt;span style=&quot;color: #ec8e2c;&quot;&gt;private&lt;/span&gt; &lt;span style=&quot;color: #d2a8ff;&quot;&gt;updateHitRate&lt;/span&gt;()&lt;span style=&quot;color: #ec8e2c;&quot;&gt;:&lt;/span&gt; &lt;span style=&quot;color: #79c0ff;&quot;&gt;void&lt;/span&gt;&lt;/div&gt;&lt;/div&gt;&lt;/div&gt;&lt;/div&gt;&lt;/div&gt;&lt;/div&gt;&lt;/div&gt;&lt;/div&gt;&lt;/div&gt;&lt;/div&gt;&lt;/div&gt;&lt;/div&gt;&lt;/div&gt;&lt;/div&gt;" style="text;strokeColor=none;fillColor=none;align=left;verticalAlign=top;spacingLeft=4;spacingRight=4;overflow=hidden;rotatable=0;points=[[0,0.5],[1,0.5]];portConstraint=eastwest;whiteSpace=wrap;html=1;" vertex="1" parent="MVKbvdrMA4UdsX5ZscEp-22">
          <mxGeometry y="442" width="680" height="26" as="geometry" />
        </mxCell>
        <mxCell id="MVKbvdrMA4UdsX5ZscEp-83" value="&lt;div style=&quot;color: rgb(201, 209, 217); background-color: rgb(13, 17, 23); font-family: &amp;quot;Droid Sans Mono&amp;quot;, &amp;quot;monospace&amp;quot;, monospace; font-size: 14px; line-height: 19px; white-space: pre;&quot;&gt;&lt;div style=&quot;line-height: 19px;&quot;&gt;&lt;div style=&quot;line-height: 19px;&quot;&gt;&lt;div style=&quot;line-height: 19px;&quot;&gt;&lt;div style=&quot;line-height: 19px;&quot;&gt;&lt;div style=&quot;line-height: 19px;&quot;&gt;&lt;div style=&quot;line-height: 19px;&quot;&gt;&lt;div style=&quot;line-height: 19px;&quot;&gt;&lt;div style=&quot;line-height: 19px;&quot;&gt;&lt;div style=&quot;line-height: 19px;&quot;&gt;&lt;div style=&quot;line-height: 19px;&quot;&gt;&lt;div style=&quot;line-height: 19px;&quot;&gt;&lt;div style=&quot;line-height: 19px;&quot;&gt;&lt;div style=&quot;line-height: 19px;&quot;&gt;&lt;div style=&quot;line-height: 19px;&quot;&gt;&lt;span style=&quot;color: #ec8e2c;&quot;&gt;public&lt;/span&gt; &lt;span style=&quot;color: #d2a8ff;&quot;&gt;getStats&lt;/span&gt;()&lt;span style=&quot;color: #ec8e2c;&quot;&gt;:&lt;/span&gt; &lt;span style=&quot;color: #fdac54;&quot;&gt;CacheStats&lt;/span&gt;&lt;/div&gt;&lt;/div&gt;&lt;/div&gt;&lt;/div&gt;&lt;/div&gt;&lt;/div&gt;&lt;/div&gt;&lt;/div&gt;&lt;/div&gt;&lt;/div&gt;&lt;/div&gt;&lt;/div&gt;&lt;/div&gt;&lt;/div&gt;&lt;/div&gt;" style="text;strokeColor=none;fillColor=none;align=left;verticalAlign=top;spacingLeft=4;spacingRight=4;overflow=hidden;rotatable=0;points=[[0,0.5],[1,0.5]];portConstraint=eastwest;whiteSpace=wrap;html=1;" vertex="1" parent="MVKbvdrMA4UdsX5ZscEp-22">
          <mxGeometry y="468" width="680" height="26" as="geometry" />
        </mxCell>
        <mxCell id="MVKbvdrMA4UdsX5ZscEp-84" value="&lt;div style=&quot;color: rgb(201, 209, 217); background-color: rgb(13, 17, 23); font-family: &amp;quot;Droid Sans Mono&amp;quot;, &amp;quot;monospace&amp;quot;, monospace; font-size: 14px; line-height: 19px; white-space: pre;&quot;&gt;&lt;div style=&quot;line-height: 19px;&quot;&gt;&lt;div style=&quot;line-height: 19px;&quot;&gt;&lt;div style=&quot;line-height: 19px;&quot;&gt;&lt;div style=&quot;line-height: 19px;&quot;&gt;&lt;div style=&quot;line-height: 19px;&quot;&gt;&lt;div style=&quot;line-height: 19px;&quot;&gt;&lt;div style=&quot;line-height: 19px;&quot;&gt;&lt;div style=&quot;line-height: 19px;&quot;&gt;&lt;div style=&quot;line-height: 19px;&quot;&gt;&lt;div style=&quot;line-height: 19px;&quot;&gt;&lt;div style=&quot;line-height: 19px;&quot;&gt;&lt;div style=&quot;line-height: 19px;&quot;&gt;&lt;div style=&quot;line-height: 19px;&quot;&gt;&lt;div style=&quot;line-height: 19px;&quot;&gt;&lt;div style=&quot;line-height: 19px;&quot;&gt;&lt;span style=&quot;color: #ec8e2c;&quot;&gt;public&lt;/span&gt; &lt;span style=&quot;color: #d2a8ff;&quot;&gt;getKeys&lt;/span&gt;()&lt;span style=&quot;color: #ec8e2c;&quot;&gt;:&lt;/span&gt; &lt;span style=&quot;color: #79c0ff;&quot;&gt;string&lt;/span&gt;[]&lt;/div&gt;&lt;/div&gt;&lt;/div&gt;&lt;/div&gt;&lt;/div&gt;&lt;/div&gt;&lt;/div&gt;&lt;/div&gt;&lt;/div&gt;&lt;/div&gt;&lt;/div&gt;&lt;/div&gt;&lt;/div&gt;&lt;/div&gt;&lt;/div&gt;&lt;/div&gt;" style="text;strokeColor=none;fillColor=none;align=left;verticalAlign=top;spacingLeft=4;spacingRight=4;overflow=hidden;rotatable=0;points=[[0,0.5],[1,0.5]];portConstraint=eastwest;whiteSpace=wrap;html=1;" vertex="1" parent="MVKbvdrMA4UdsX5ZscEp-22">
          <mxGeometry y="494" width="680" height="26" as="geometry" />
        </mxCell>
        <mxCell id="MVKbvdrMA4UdsX5ZscEp-85" value="&lt;div style=&quot;color: rgb(201, 209, 217); background-color: rgb(13, 17, 23); font-family: &amp;quot;Droid Sans Mono&amp;quot;, &amp;quot;monospace&amp;quot;, monospace; font-size: 14px; line-height: 19px; white-space: pre;&quot;&gt;&lt;div style=&quot;line-height: 19px;&quot;&gt;&lt;div style=&quot;line-height: 19px;&quot;&gt;&lt;div style=&quot;line-height: 19px;&quot;&gt;&lt;div style=&quot;line-height: 19px;&quot;&gt;&lt;div style=&quot;line-height: 19px;&quot;&gt;&lt;div style=&quot;line-height: 19px;&quot;&gt;&lt;div style=&quot;line-height: 19px;&quot;&gt;&lt;div style=&quot;line-height: 19px;&quot;&gt;&lt;div style=&quot;line-height: 19px;&quot;&gt;&lt;div style=&quot;line-height: 19px;&quot;&gt;&lt;div style=&quot;line-height: 19px;&quot;&gt;&lt;div style=&quot;line-height: 19px;&quot;&gt;&lt;div style=&quot;line-height: 19px;&quot;&gt;&lt;div style=&quot;line-height: 19px;&quot;&gt;&lt;div style=&quot;line-height: 19px;&quot;&gt;&lt;div style=&quot;line-height: 19px;&quot;&gt;&lt;span style=&quot;color: #ec8e2c;&quot;&gt;public&lt;/span&gt; &lt;span style=&quot;color: #d2a8ff;&quot;&gt;getConfig&lt;/span&gt;()&lt;span style=&quot;color: #ec8e2c;&quot;&gt;:&lt;/span&gt; &lt;span style=&quot;color: #79c0ff;&quot;&gt;Required&lt;/span&gt;&amp;lt;&lt;span style=&quot;color: #fdac54;&quot;&gt;CacheConfig&lt;/span&gt;&amp;gt;&lt;/div&gt;&lt;/div&gt;&lt;/div&gt;&lt;/div&gt;&lt;/div&gt;&lt;/div&gt;&lt;/div&gt;&lt;/div&gt;&lt;/div&gt;&lt;/div&gt;&lt;/div&gt;&lt;/div&gt;&lt;/div&gt;&lt;/div&gt;&lt;/div&gt;&lt;/div&gt;&lt;/div&gt;" style="text;strokeColor=none;fillColor=none;align=left;verticalAlign=top;spacingLeft=4;spacingRight=4;overflow=hidden;rotatable=0;points=[[0,0.5],[1,0.5]];portConstraint=eastwest;whiteSpace=wrap;html=1;" vertex="1" parent="MVKbvdrMA4UdsX5ZscEp-22">
          <mxGeometry y="520" width="680" height="26" as="geometry" />
        </mxCell>
        <mxCell id="MVKbvdrMA4UdsX5ZscEp-86" value="&lt;div style=&quot;color: rgb(201, 209, 217); background-color: rgb(13, 17, 23); font-family: &amp;quot;Droid Sans Mono&amp;quot;, &amp;quot;monospace&amp;quot;, monospace; font-size: 14px; line-height: 19px; white-space: pre;&quot;&gt;&lt;div style=&quot;line-height: 19px;&quot;&gt;&lt;div style=&quot;line-height: 19px;&quot;&gt;&lt;div style=&quot;line-height: 19px;&quot;&gt;&lt;div style=&quot;line-height: 19px;&quot;&gt;&lt;div style=&quot;line-height: 19px;&quot;&gt;&lt;div style=&quot;line-height: 19px;&quot;&gt;&lt;div style=&quot;line-height: 19px;&quot;&gt;&lt;div style=&quot;line-height: 19px;&quot;&gt;&lt;div style=&quot;line-height: 19px;&quot;&gt;&lt;div style=&quot;line-height: 19px;&quot;&gt;&lt;div style=&quot;line-height: 19px;&quot;&gt;&lt;div style=&quot;line-height: 19px;&quot;&gt;&lt;div style=&quot;line-height: 19px;&quot;&gt;&lt;div style=&quot;line-height: 19px;&quot;&gt;&lt;div style=&quot;line-height: 19px;&quot;&gt;&lt;div style=&quot;line-height: 19px;&quot;&gt;&lt;div style=&quot;line-height: 19px;&quot;&gt;&lt;span style=&quot;color: #ec8e2c;&quot;&gt;public&lt;/span&gt; &lt;span style=&quot;color: #d2a8ff;&quot;&gt;updateConfig&lt;/span&gt;(&lt;span style=&quot;color: #fdac54;&quot;&gt;newConfig&lt;/span&gt;&lt;span style=&quot;color: #ec8e2c;&quot;&gt;:&lt;/span&gt; &lt;span style=&quot;color: #79c0ff;&quot;&gt;Partial&lt;/span&gt;&amp;lt;&lt;span style=&quot;color: #fdac54;&quot;&gt;CacheConfig&lt;/span&gt;&amp;gt;)&lt;span style=&quot;color: #ec8e2c;&quot;&gt;:&lt;/span&gt; &lt;span style=&quot;color: #79c0ff;&quot;&gt;void&lt;/span&gt;&lt;/div&gt;&lt;/div&gt;&lt;/div&gt;&lt;/div&gt;&lt;/div&gt;&lt;/div&gt;&lt;/div&gt;&lt;/div&gt;&lt;/div&gt;&lt;/div&gt;&lt;/div&gt;&lt;/div&gt;&lt;/div&gt;&lt;/div&gt;&lt;/div&gt;&lt;/div&gt;&lt;/div&gt;&lt;/div&gt;" style="text;strokeColor=none;fillColor=none;align=left;verticalAlign=top;spacingLeft=4;spacingRight=4;overflow=hidden;rotatable=0;points=[[0,0.5],[1,0.5]];portConstraint=eastwest;whiteSpace=wrap;html=1;" vertex="1" parent="MVKbvdrMA4UdsX5ZscEp-22">
          <mxGeometry y="546" width="680" height="26" as="geometry" />
        </mxCell>
        <mxCell id="MVKbvdrMA4UdsX5ZscEp-87" value="&lt;div style=&quot;color: rgb(201, 209, 217); background-color: rgb(13, 17, 23); font-family: &amp;quot;Droid Sans Mono&amp;quot;, &amp;quot;monospace&amp;quot;, monospace; font-size: 14px; line-height: 19px; white-space: pre;&quot;&gt;&lt;div style=&quot;line-height: 19px;&quot;&gt;&lt;div style=&quot;line-height: 19px;&quot;&gt;&lt;div style=&quot;line-height: 19px;&quot;&gt;&lt;div style=&quot;line-height: 19px;&quot;&gt;&lt;div style=&quot;line-height: 19px;&quot;&gt;&lt;div style=&quot;line-height: 19px;&quot;&gt;&lt;div style=&quot;line-height: 19px;&quot;&gt;&lt;div style=&quot;line-height: 19px;&quot;&gt;&lt;div style=&quot;line-height: 19px;&quot;&gt;&lt;div style=&quot;line-height: 19px;&quot;&gt;&lt;div style=&quot;line-height: 19px;&quot;&gt;&lt;div style=&quot;line-height: 19px;&quot;&gt;&lt;div style=&quot;line-height: 19px;&quot;&gt;&lt;div style=&quot;line-height: 19px;&quot;&gt;&lt;div style=&quot;line-height: 19px;&quot;&gt;&lt;div style=&quot;line-height: 19px;&quot;&gt;&lt;div style=&quot;line-height: 19px;&quot;&gt;&lt;div style=&quot;line-height: 19px;&quot;&gt; &lt;span style=&quot;color: #ec8e2c;&quot;&gt;public&lt;/span&gt; &lt;span style=&quot;color: #d2a8ff;&quot;&gt;destroy&lt;/span&gt;()&lt;span style=&quot;color: #ec8e2c;&quot;&gt;:&lt;/span&gt; &lt;span style=&quot;color: #79c0ff;&quot;&gt;void&lt;/span&gt;&lt;/div&gt;&lt;/div&gt;&lt;/div&gt;&lt;/div&gt;&lt;/div&gt;&lt;/div&gt;&lt;/div&gt;&lt;/div&gt;&lt;/div&gt;&lt;/div&gt;&lt;/div&gt;&lt;/div&gt;&lt;/div&gt;&lt;/div&gt;&lt;/div&gt;&lt;/div&gt;&lt;/div&gt;&lt;/div&gt;&lt;/div&gt;" style="text;strokeColor=none;fillColor=none;align=left;verticalAlign=top;spacingLeft=4;spacingRight=4;overflow=hidden;rotatable=0;points=[[0,0.5],[1,0.5]];portConstraint=eastwest;whiteSpace=wrap;html=1;" vertex="1" parent="MVKbvdrMA4UdsX5ZscEp-22">
          <mxGeometry y="572" width="680" height="26" as="geometry" />
        </mxCell>
        <mxCell id="MVKbvdrMA4UdsX5ZscEp-28" style="edgeStyle=orthogonalEdgeStyle;rounded=0;orthogonalLoop=1;jettySize=auto;html=1;entryX=0.5;entryY=0;entryDx=0;entryDy=0;" edge="1" parent="1" source="MVKbvdrMA4UdsX5ZscEp-29" target="MVKbvdrMA4UdsX5ZscEp-22">
          <mxGeometry relative="1" as="geometry" />
        </mxCell>
        <mxCell id="MVKbvdrMA4UdsX5ZscEp-30" value="" style="edgeStyle=orthogonalEdgeStyle;rounded=0;orthogonalLoop=1;jettySize=auto;html=1;entryX=0;entryY=0.5;entryDx=0;entryDy=0;" edge="1" parent="1" source="MVKbvdrMA4UdsX5ZscEp-9" target="MVKbvdrMA4UdsX5ZscEp-21">
          <mxGeometry relative="1" as="geometry">
            <mxPoint x="125" y="800" as="sourcePoint" />
            <mxPoint x="560" y="879" as="targetPoint" />
          </mxGeometry>
        </mxCell>
        <mxCell id="MVKbvdrMA4UdsX5ZscEp-21" value="register new cache key" style="text;html=1;whiteSpace=wrap;strokeColor=none;fillColor=none;align=center;verticalAlign=middle;rounded=0;" vertex="1" parent="1">
          <mxGeometry x="250" y="862" width="60" height="30" as="geometry" />
        </mxCell>
        <mxCell id="MVKbvdrMA4UdsX5ZscEp-31" value="" style="edgeStyle=orthogonalEdgeStyle;rounded=0;orthogonalLoop=1;jettySize=auto;html=1;entryX=0.5;entryY=0;entryDx=0;entryDy=0;" edge="1" parent="1" source="MVKbvdrMA4UdsX5ZscEp-16" target="MVKbvdrMA4UdsX5ZscEp-29">
          <mxGeometry relative="1" as="geometry">
            <mxPoint x="1160" y="879" as="sourcePoint" />
            <mxPoint x="1568" y="560" as="targetPoint" />
          </mxGeometry>
        </mxCell>
        <mxCell id="MVKbvdrMA4UdsX5ZscEp-29" value="map of cache manager&amp;nbsp;" style="text;html=1;whiteSpace=wrap;strokeColor=none;fillColor=none;align=center;verticalAlign=middle;rounded=0;" vertex="1" parent="1">
          <mxGeometry x="1230" y="530" width="60" height="30" as="geometry" />
        </mxCell>
        <mxCell id="MVKbvdrMA4UdsX5ZscEp-39" value="&lt;div style=&quot;color: rgb(201, 209, 217); background-color: rgb(13, 17, 23); font-family: &amp;quot;Droid Sans Mono&amp;quot;, &amp;quot;monospace&amp;quot;, monospace; font-size: 14px; line-height: 19px; white-space: pre;&quot;&gt;&lt;span style=&quot;color: rgb(253, 172, 84);&quot;&gt;&amp;lt;Interface&amp;gt;CacheEntry&lt;/span&gt;&lt;/div&gt;" style="swimlane;fontStyle=0;childLayout=stackLayout;horizontal=1;startSize=26;fillColor=none;horizontalStack=0;resizeParent=1;resizeParentMax=0;resizeLast=0;collapsible=1;marginBottom=0;whiteSpace=wrap;html=1;" vertex="1" parent="1">
          <mxGeometry x="2140" y="430" width="330" height="156" as="geometry" />
        </mxCell>
        <mxCell id="MVKbvdrMA4UdsX5ZscEp-40" value="+&amp;nbsp;&lt;span style=&quot;background-color: rgb(13, 17, 23); color: rgb(201, 209, 217); font-family: &amp;quot;Droid Sans Mono&amp;quot;, &amp;quot;monospace&amp;quot;, monospace; font-size: 14px; white-space: pre;&quot;&gt;data&lt;/span&gt;&lt;span style=&quot;background-color: transparent; color: light-dark(rgb(0, 0, 0), rgb(255, 255, 255));&quot;&gt;:&amp;nbsp;&lt;/span&gt;&lt;span style=&quot;color: rgb(253, 172, 84); background-color: rgb(13, 17, 23); font-family: &amp;quot;Droid Sans Mono&amp;quot;, &amp;quot;monospace&amp;quot;, monospace; font-size: 14px; white-space: pre;&quot;&gt;T&lt;/span&gt;" style="text;strokeColor=none;fillColor=none;align=left;verticalAlign=top;spacingLeft=4;spacingRight=4;overflow=hidden;rotatable=0;points=[[0,0.5],[1,0.5]];portConstraint=eastwest;whiteSpace=wrap;html=1;" vertex="1" parent="MVKbvdrMA4UdsX5ZscEp-39">
          <mxGeometry y="26" width="330" height="26" as="geometry" />
        </mxCell>
        <mxCell id="MVKbvdrMA4UdsX5ZscEp-41" value="+&amp;nbsp;&lt;span style=&quot;background-color: rgb(13, 17, 23); color: rgb(201, 209, 217); font-family: &amp;quot;Droid Sans Mono&amp;quot;, &amp;quot;monospace&amp;quot;, monospace; font-size: 14px; white-space: pre;&quot;&gt;timestamp&lt;/span&gt;&lt;span style=&quot;background-color: transparent; color: light-dark(rgb(0, 0, 0), rgb(255, 255, 255));&quot;&gt;:&amp;nbsp;&lt;/span&gt;&lt;span style=&quot;color: rgb(121, 192, 255); background-color: rgb(13, 17, 23); font-family: &amp;quot;Droid Sans Mono&amp;quot;, &amp;quot;monospace&amp;quot;, monospace; font-size: 14px; white-space: pre;&quot;&gt;Date&lt;/span&gt;" style="text;strokeColor=none;fillColor=none;align=left;verticalAlign=top;spacingLeft=4;spacingRight=4;overflow=hidden;rotatable=0;points=[[0,0.5],[1,0.5]];portConstraint=eastwest;whiteSpace=wrap;html=1;" vertex="1" parent="MVKbvdrMA4UdsX5ZscEp-39">
          <mxGeometry y="52" width="330" height="26" as="geometry" />
        </mxCell>
        <mxCell id="MVKbvdrMA4UdsX5ZscEp-42" value="+&amp;nbsp;&lt;span style=&quot;background-color: rgb(13, 17, 23); color: rgb(201, 209, 217); font-family: &amp;quot;Droid Sans Mono&amp;quot;, &amp;quot;monospace&amp;quot;, monospace; font-size: 14px; white-space: pre;&quot;&gt;expiresAt&lt;/span&gt;&lt;span style=&quot;background-color: transparent; color: light-dark(rgb(0, 0, 0), rgb(255, 255, 255));&quot;&gt;:&amp;nbsp;&lt;/span&gt;&lt;span style=&quot;color: rgb(121, 192, 255); background-color: rgb(13, 17, 23); font-family: &amp;quot;Droid Sans Mono&amp;quot;, &amp;quot;monospace&amp;quot;, monospace; font-size: 14px; white-space: pre;&quot;&gt;Date&lt;/span&gt;" style="text;strokeColor=none;fillColor=none;align=left;verticalAlign=top;spacingLeft=4;spacingRight=4;overflow=hidden;rotatable=0;points=[[0,0.5],[1,0.5]];portConstraint=eastwest;whiteSpace=wrap;html=1;" vertex="1" parent="MVKbvdrMA4UdsX5ZscEp-39">
          <mxGeometry y="78" width="330" height="26" as="geometry" />
        </mxCell>
        <mxCell id="MVKbvdrMA4UdsX5ZscEp-43" value="&lt;div style=&quot;color: rgb(201, 209, 217); background-color: rgb(13, 17, 23); font-family: &amp;quot;Droid Sans Mono&amp;quot;, &amp;quot;monospace&amp;quot;, monospace; font-size: 14px; line-height: 19px; white-space: pre;&quot;&gt;  accessCount&lt;span style=&quot;color: #ec8e2c;&quot;&gt;:&lt;/span&gt; &lt;span style=&quot;color: #79c0ff;&quot;&gt;number&lt;/span&gt;;&lt;/div&gt;" style="text;strokeColor=none;fillColor=none;align=left;verticalAlign=top;spacingLeft=4;spacingRight=4;overflow=hidden;rotatable=0;points=[[0,0.5],[1,0.5]];portConstraint=eastwest;whiteSpace=wrap;html=1;" vertex="1" parent="MVKbvdrMA4UdsX5ZscEp-39">
          <mxGeometry y="104" width="330" height="26" as="geometry" />
        </mxCell>
        <mxCell id="MVKbvdrMA4UdsX5ZscEp-44" value="&lt;div style=&quot;color: rgb(201, 209, 217); background-color: rgb(13, 17, 23); font-family: &amp;quot;Droid Sans Mono&amp;quot;, &amp;quot;monospace&amp;quot;, monospace; font-size: 14px; line-height: 19px; white-space: pre;&quot;&gt;&lt;div style=&quot;line-height: 19px;&quot;&gt;&lt;div style=&quot;line-height: 19px;&quot;&gt;lastAccessed&lt;span style=&quot;color: #ec8e2c;&quot;&gt;:&lt;/span&gt; &lt;span style=&quot;color: #79c0ff;&quot;&gt;Date&lt;/span&gt;;&lt;/div&gt;&lt;/div&gt;&lt;/div&gt;" style="text;strokeColor=none;fillColor=none;align=left;verticalAlign=top;spacingLeft=4;spacingRight=4;overflow=hidden;rotatable=0;points=[[0,0.5],[1,0.5]];portConstraint=eastwest;whiteSpace=wrap;html=1;" vertex="1" parent="MVKbvdrMA4UdsX5ZscEp-39">
          <mxGeometry y="130" width="330" height="26" as="geometry" />
        </mxCell>
        <mxCell id="MVKbvdrMA4UdsX5ZscEp-45" value="&lt;p style=&quot;margin:0px;margin-top:4px;text-align:center;&quot;&gt;&lt;i&gt;&amp;lt;&amp;lt;Interface&amp;gt;&amp;gt;&lt;/i&gt;&lt;br&gt;&lt;/p&gt;&lt;div style=&quot;color: rgb(201, 209, 217); background-color: rgb(13, 17, 23); font-family: &amp;quot;Droid Sans Mono&amp;quot;, &amp;quot;monospace&amp;quot;, monospace; font-size: 14px; line-height: 19px; white-space: pre;&quot;&gt;&lt;span style=&quot;color: rgb(253, 172, 84);&quot;&gt;CacheConfig&lt;/span&gt;&lt;/div&gt;&lt;hr size=&quot;1&quot; style=&quot;border-style:solid;&quot;&gt;&lt;p style=&quot;margin:0px;margin-left:4px;&quot;&gt;+&amp;nbsp;&lt;span style=&quot;background-color: rgb(13, 17, 23); color: rgb(201, 209, 217); font-family: &amp;quot;Droid Sans Mono&amp;quot;, &amp;quot;monospace&amp;quot;, monospace; font-size: 14px; white-space: pre;&quot;&gt;ttlMinutes&lt;/span&gt;&lt;span style=&quot;font-family: &amp;quot;Droid Sans Mono&amp;quot;, &amp;quot;monospace&amp;quot;, monospace; font-size: 14px; white-space: pre; color: rgb(236, 142, 44);&quot;&gt;?:&lt;/span&gt;&lt;span style=&quot;background-color: rgb(13, 17, 23); color: rgb(201, 209, 217); font-family: &amp;quot;Droid Sans Mono&amp;quot;, &amp;quot;monospace&amp;quot;, monospace; font-size: 14px; white-space: pre;&quot;&gt; &lt;/span&gt;&lt;span style=&quot;font-family: &amp;quot;Droid Sans Mono&amp;quot;, &amp;quot;monospace&amp;quot;, monospace; font-size: 14px; white-space: pre; color: rgb(121, 192, 255);&quot;&gt;number&lt;/span&gt;&lt;span style=&quot;background-color: rgb(13, 17, 23); color: rgb(201, 209, 217); font-family: &amp;quot;Droid Sans Mono&amp;quot;, &amp;quot;monospace&amp;quot;, monospace; font-size: 14px; white-space: pre;&quot;&gt;;&lt;/span&gt;&lt;/p&gt;&lt;p style=&quot;margin:0px;margin-left:4px;&quot;&gt;+&lt;span style=&quot;background-color: rgb(13, 17, 23); color: rgb(201, 209, 217); font-family: &amp;quot;Droid Sans Mono&amp;quot;, &amp;quot;monospace&amp;quot;, monospace; font-size: 14px; white-space: pre;&quot;&gt; &lt;/span&gt;&lt;span style=&quot;background-color: rgb(13, 17, 23); color: rgb(201, 209, 217); font-family: &amp;quot;Droid Sans Mono&amp;quot;, &amp;quot;monospace&amp;quot;, monospace; font-size: 14px; white-space: pre;&quot;&gt;maxSize&lt;/span&gt;&lt;span style=&quot;font-family: &amp;quot;Droid Sans Mono&amp;quot;, &amp;quot;monospace&amp;quot;, monospace; font-size: 14px; white-space: pre; color: rgb(236, 142, 44);&quot;&gt;?:&lt;/span&gt;&lt;span style=&quot;background-color: rgb(13, 17, 23); color: rgb(201, 209, 217); font-family: &amp;quot;Droid Sans Mono&amp;quot;, &amp;quot;monospace&amp;quot;, monospace; font-size: 14px; white-space: pre;&quot;&gt; &lt;/span&gt;&lt;span style=&quot;font-family: &amp;quot;Droid Sans Mono&amp;quot;, &amp;quot;monospace&amp;quot;, monospace; font-size: 14px; white-space: pre; color: rgb(121, 192, 255);&quot;&gt;number&lt;/span&gt;&lt;span style=&quot;background-color: rgb(13, 17, 23); color: rgb(201, 209, 217); font-family: &amp;quot;Droid Sans Mono&amp;quot;, &amp;quot;monospace&amp;quot;, monospace; font-size: 14px; white-space: pre;&quot;&gt;;&lt;br&gt;+ &lt;/span&gt;&lt;span style=&quot;background-color: rgb(13, 17, 23); color: rgb(201, 209, 217); font-family: &amp;quot;Droid Sans Mono&amp;quot;, &amp;quot;monospace&amp;quot;, monospace; font-size: 14px; white-space: pre;&quot;&gt;cleanupIntervalMinutes&lt;/span&gt;&lt;span style=&quot;font-family: &amp;quot;Droid Sans Mono&amp;quot;, &amp;quot;monospace&amp;quot;, monospace; font-size: 14px; white-space: pre; color: rgb(236, 142, 44);&quot;&gt;?:&lt;/span&gt;&lt;span style=&quot;background-color: rgb(13, 17, 23); color: rgb(201, 209, 217); font-family: &amp;quot;Droid Sans Mono&amp;quot;, &amp;quot;monospace&amp;quot;, monospace; font-size: 14px; white-space: pre;&quot;&gt; &lt;/span&gt;&lt;span style=&quot;font-family: &amp;quot;Droid Sans Mono&amp;quot;, &amp;quot;monospace&amp;quot;, monospace; font-size: 14px; white-space: pre; color: rgb(121, 192, 255);&quot;&gt;number&lt;/span&gt;&lt;span style=&quot;background-color: rgb(13, 17, 23); color: rgb(201, 209, 217); font-family: &amp;quot;Droid Sans Mono&amp;quot;, &amp;quot;monospace&amp;quot;, monospace; font-size: 14px; white-space: pre;&quot;&gt;;&lt;br&gt;&lt;/span&gt;&lt;/p&gt;&lt;div style=&quot;color: rgb(201, 209, 217); background-color: rgb(13, 17, 23); font-family: &amp;quot;Droid Sans Mono&amp;quot;, &amp;quot;monospace&amp;quot;, monospace; font-size: 14px; line-height: 19px; white-space: pre;&quot;&gt; + enableLRU&lt;span style=&quot;color: rgb(236, 142, 44);&quot;&gt;?:&lt;/span&gt; &lt;span style=&quot;color: rgb(121, 192, 255);&quot;&gt;boolean&lt;/span&gt;;&lt;/div&gt;&lt;div style=&quot;color: rgb(201, 209, 217); background-color: rgb(13, 17, 23); font-family: &amp;quot;Droid Sans Mono&amp;quot;, &amp;quot;monospace&amp;quot;, monospace; font-size: 14px; line-height: 19px; white-space: pre;&quot;&gt; +  enableStats&lt;span style=&quot;color: rgb(236, 142, 44);&quot;&gt;?:&lt;/span&gt; &lt;span style=&quot;color: rgb(121, 192, 255);&quot;&gt;boolean&lt;/span&gt;;&lt;/div&gt;&lt;p style=&quot;margin:0px;margin-left:4px;&quot;&gt;&lt;br&gt;&lt;/p&gt;" style="verticalAlign=top;align=left;overflow=fill;html=1;whiteSpace=wrap;" vertex="1" parent="1">
          <mxGeometry x="2350" y="780" width="345" height="198" as="geometry" />
        </mxCell>
        <mxCell id="MVKbvdrMA4UdsX5ZscEp-46" value="&lt;interface&gt;CacheStats" style="swimlane;fontStyle=0;childLayout=stackLayout;horizontal=1;startSize=26;horizontalStack=0;resizeParent=1;resizeParentMax=0;resizeLast=0;collapsible=1;marginBottom=0;align=center;fontSize=14;" vertex="1" parent="1">
          <mxGeometry x="2170" y="1060" width="210" height="296" as="geometry" />
        </mxCell>
        <mxCell id="MVKbvdrMA4UdsX5ZscEp-47" value="&lt;div style=&quot;color: rgb(201, 209, 217); background-color: rgb(13, 17, 23); font-family: &amp;quot;Droid Sans Mono&amp;quot;, &amp;quot;monospace&amp;quot;, monospace; font-size: 14px; line-height: 19px; white-space: pre;&quot;&gt; size&lt;span style=&quot;color: #ec8e2c;&quot;&gt;:&lt;/span&gt; &lt;span style=&quot;color: #79c0ff;&quot;&gt;number&lt;/span&gt;;&lt;/div&gt;" style="text;strokeColor=none;fillColor=none;spacingLeft=4;spacingRight=4;overflow=hidden;rotatable=0;points=[[0,0.5],[1,0.5]];portConstraint=eastwest;fontSize=12;whiteSpace=wrap;html=1;" vertex="1" parent="MVKbvdrMA4UdsX5ZscEp-46">
          <mxGeometry y="26" width="210" height="30" as="geometry" />
        </mxCell>
        <mxCell id="MVKbvdrMA4UdsX5ZscEp-48" value="&lt;div style=&quot;color: rgb(201, 209, 217); background-color: rgb(13, 17, 23); font-family: &amp;quot;Droid Sans Mono&amp;quot;, &amp;quot;monospace&amp;quot;, monospace; font-size: 14px; line-height: 19px; white-space: pre;&quot;&gt;maxSize&lt;span style=&quot;color: #ec8e2c;&quot;&gt;:&lt;/span&gt; &lt;span style=&quot;color: #79c0ff;&quot;&gt;number&lt;/span&gt;;&lt;/div&gt;" style="text;strokeColor=none;fillColor=none;spacingLeft=4;spacingRight=4;overflow=hidden;rotatable=0;points=[[0,0.5],[1,0.5]];portConstraint=eastwest;fontSize=12;whiteSpace=wrap;html=1;" vertex="1" parent="MVKbvdrMA4UdsX5ZscEp-46">
          <mxGeometry y="56" width="210" height="30" as="geometry" />
        </mxCell>
        <mxCell id="MVKbvdrMA4UdsX5ZscEp-49" value="&lt;div style=&quot;color: rgb(201, 209, 217); background-color: rgb(13, 17, 23); font-family: &amp;quot;Droid Sans Mono&amp;quot;, &amp;quot;monospace&amp;quot;, monospace; font-size: 14px; line-height: 19px; white-space: pre;&quot;&gt;hits&lt;span style=&quot;color: #ec8e2c;&quot;&gt;:&lt;/span&gt; &lt;span style=&quot;color: #79c0ff;&quot;&gt;number&lt;/span&gt;;&lt;/div&gt;" style="text;strokeColor=none;fillColor=none;spacingLeft=4;spacingRight=4;overflow=hidden;rotatable=0;points=[[0,0.5],[1,0.5]];portConstraint=eastwest;fontSize=12;whiteSpace=wrap;html=1;" vertex="1" parent="MVKbvdrMA4UdsX5ZscEp-46">
          <mxGeometry y="86" width="210" height="30" as="geometry" />
        </mxCell>
        <mxCell id="MVKbvdrMA4UdsX5ZscEp-50" value="&lt;div style=&quot;color: rgb(201, 209, 217); background-color: rgb(13, 17, 23); font-family: &amp;quot;Droid Sans Mono&amp;quot;, &amp;quot;monospace&amp;quot;, monospace; font-size: 14px; line-height: 19px; white-space: pre;&quot;&gt;&lt;div style=&quot;line-height: 19px;&quot;&gt; misses&lt;span style=&quot;color: #ec8e2c;&quot;&gt;:&lt;/span&gt; &lt;span style=&quot;color: #79c0ff;&quot;&gt;number&lt;/span&gt;;&lt;/div&gt;&lt;/div&gt;" style="text;strokeColor=none;fillColor=none;spacingLeft=4;spacingRight=4;overflow=hidden;rotatable=0;points=[[0,0.5],[1,0.5]];portConstraint=eastwest;fontSize=12;whiteSpace=wrap;html=1;" vertex="1" parent="MVKbvdrMA4UdsX5ZscEp-46">
          <mxGeometry y="116" width="210" height="30" as="geometry" />
        </mxCell>
        <mxCell id="MVKbvdrMA4UdsX5ZscEp-51" value="&lt;div style=&quot;color: rgb(201, 209, 217); background-color: rgb(13, 17, 23); font-family: &amp;quot;Droid Sans Mono&amp;quot;, &amp;quot;monospace&amp;quot;, monospace; font-size: 14px; line-height: 19px; white-space: pre;&quot;&gt;&lt;div style=&quot;line-height: 19px;&quot;&gt;&lt;div style=&quot;line-height: 19px;&quot;&gt;hitRate&lt;span style=&quot;color: #ec8e2c;&quot;&gt;:&lt;/span&gt; &lt;span style=&quot;color: #79c0ff;&quot;&gt;number&lt;/span&gt;;&lt;/div&gt;&lt;/div&gt;&lt;/div&gt;" style="text;strokeColor=none;fillColor=none;spacingLeft=4;spacingRight=4;overflow=hidden;rotatable=0;points=[[0,0.5],[1,0.5]];portConstraint=eastwest;fontSize=12;whiteSpace=wrap;html=1;" vertex="1" parent="MVKbvdrMA4UdsX5ZscEp-46">
          <mxGeometry y="146" width="210" height="30" as="geometry" />
        </mxCell>
        <mxCell id="MVKbvdrMA4UdsX5ZscEp-52" value="&lt;div style=&quot;color: rgb(201, 209, 217); background-color: rgb(13, 17, 23); font-family: &amp;quot;Droid Sans Mono&amp;quot;, &amp;quot;monospace&amp;quot;, monospace; font-size: 14px; line-height: 19px; white-space: pre;&quot;&gt;&lt;div style=&quot;line-height: 19px;&quot;&gt;&lt;div style=&quot;line-height: 19px;&quot;&gt;&lt;div style=&quot;line-height: 19px;&quot;&gt;totalAccesses&lt;span style=&quot;color: #ec8e2c;&quot;&gt;:&lt;/span&gt; &lt;span style=&quot;color: #79c0ff;&quot;&gt;number&lt;/span&gt;;&lt;/div&gt;&lt;/div&gt;&lt;/div&gt;&lt;/div&gt;" style="text;strokeColor=none;fillColor=none;spacingLeft=4;spacingRight=4;overflow=hidden;rotatable=0;points=[[0,0.5],[1,0.5]];portConstraint=eastwest;fontSize=12;whiteSpace=wrap;html=1;" vertex="1" parent="MVKbvdrMA4UdsX5ZscEp-46">
          <mxGeometry y="176" width="210" height="30" as="geometry" />
        </mxCell>
        <mxCell id="MVKbvdrMA4UdsX5ZscEp-53" value="&lt;div style=&quot;color: rgb(201, 209, 217); background-color: rgb(13, 17, 23); font-family: &amp;quot;Droid Sans Mono&amp;quot;, &amp;quot;monospace&amp;quot;, monospace; font-size: 14px; line-height: 19px; white-space: pre;&quot;&gt;&lt;div style=&quot;line-height: 19px;&quot;&gt;&lt;div style=&quot;line-height: 19px;&quot;&gt;&lt;div style=&quot;line-height: 19px;&quot;&gt;&lt;div style=&quot;line-height: 19px;&quot;&gt;oldestEntry&lt;span style=&quot;color: #ec8e2c;&quot;&gt;?:&lt;/span&gt; &lt;span style=&quot;color: #79c0ff;&quot;&gt;Date&lt;/span&gt;;&lt;/div&gt;&lt;/div&gt;&lt;/div&gt;&lt;/div&gt;&lt;/div&gt;" style="text;strokeColor=none;fillColor=none;spacingLeft=4;spacingRight=4;overflow=hidden;rotatable=0;points=[[0,0.5],[1,0.5]];portConstraint=eastwest;fontSize=12;whiteSpace=wrap;html=1;" vertex="1" parent="MVKbvdrMA4UdsX5ZscEp-46">
          <mxGeometry y="206" width="210" height="30" as="geometry" />
        </mxCell>
        <mxCell id="MVKbvdrMA4UdsX5ZscEp-54" value="&lt;div style=&quot;color: rgb(201, 209, 217); background-color: rgb(13, 17, 23); font-family: &amp;quot;Droid Sans Mono&amp;quot;, &amp;quot;monospace&amp;quot;, monospace; font-size: 14px; line-height: 19px; white-space: pre;&quot;&gt;&lt;div style=&quot;line-height: 19px;&quot;&gt;&lt;div style=&quot;line-height: 19px;&quot;&gt;&lt;div style=&quot;line-height: 19px;&quot;&gt;&lt;div style=&quot;line-height: 19px;&quot;&gt;&lt;div style=&quot;line-height: 19px;&quot;&gt;newestEntry&lt;span style=&quot;color: #ec8e2c;&quot;&gt;?:&lt;/span&gt; &lt;span style=&quot;color: #79c0ff;&quot;&gt;Date&lt;/span&gt;;&lt;/div&gt;&lt;/div&gt;&lt;/div&gt;&lt;/div&gt;&lt;/div&gt;&lt;/div&gt;" style="text;strokeColor=none;fillColor=none;spacingLeft=4;spacingRight=4;overflow=hidden;rotatable=0;points=[[0,0.5],[1,0.5]];portConstraint=eastwest;fontSize=12;whiteSpace=wrap;html=1;" vertex="1" parent="MVKbvdrMA4UdsX5ZscEp-46">
          <mxGeometry y="236" width="210" height="30" as="geometry" />
        </mxCell>
        <mxCell id="MVKbvdrMA4UdsX5ZscEp-55" value="&lt;div style=&quot;color: rgb(201, 209, 217); background-color: rgb(13, 17, 23); font-family: &amp;quot;Droid Sans Mono&amp;quot;, &amp;quot;monospace&amp;quot;, monospace; font-size: 14px; line-height: 19px; white-space: pre;&quot;&gt;&lt;div style=&quot;line-height: 19px;&quot;&gt;&lt;div style=&quot;line-height: 19px;&quot;&gt;&lt;div style=&quot;line-height: 19px;&quot;&gt;&lt;div style=&quot;line-height: 19px;&quot;&gt;&lt;div style=&quot;line-height: 19px;&quot;&gt;&lt;div style=&quot;line-height: 19px;&quot;&gt;lastCleanup&lt;span style=&quot;color: #ec8e2c;&quot;&gt;?:&lt;/span&gt; &lt;span style=&quot;color: #79c0ff;&quot;&gt;Date&lt;/span&gt;;&lt;/div&gt;&lt;/div&gt;&lt;/div&gt;&lt;/div&gt;&lt;/div&gt;&lt;/div&gt;&lt;/div&gt;" style="text;strokeColor=none;fillColor=none;spacingLeft=4;spacingRight=4;overflow=hidden;rotatable=0;points=[[0,0.5],[1,0.5]];portConstraint=eastwest;fontSize=12;whiteSpace=wrap;html=1;" vertex="1" parent="MVKbvdrMA4UdsX5ZscEp-46">
          <mxGeometry y="266" width="210" height="30" as="geometry" />
        </mxCell>
        <mxCell id="MVKbvdrMA4UdsX5ZscEp-56" style="edgeStyle=orthogonalEdgeStyle;rounded=0;orthogonalLoop=1;jettySize=auto;html=1;entryX=0.5;entryY=0;entryDx=0;entryDy=0;" edge="1" parent="1" source="MVKbvdrMA4UdsX5ZscEp-23" target="MVKbvdrMA4UdsX5ZscEp-39">
          <mxGeometry relative="1" as="geometry" />
        </mxCell>
        <mxCell id="MVKbvdrMA4UdsX5ZscEp-57" style="edgeStyle=orthogonalEdgeStyle;rounded=0;orthogonalLoop=1;jettySize=auto;html=1;entryX=0.5;entryY=0;entryDx=0;entryDy=0;" edge="1" parent="1" source="MVKbvdrMA4UdsX5ZscEp-24" target="MVKbvdrMA4UdsX5ZscEp-45">
          <mxGeometry relative="1" as="geometry" />
        </mxCell>
        <mxCell id="MVKbvdrMA4UdsX5ZscEp-58" style="edgeStyle=orthogonalEdgeStyle;rounded=0;orthogonalLoop=1;jettySize=auto;html=1;entryX=0.5;entryY=0;entryDx=0;entryDy=0;" edge="1" parent="1" source="MVKbvdrMA4UdsX5ZscEp-27" target="MVKbvdrMA4UdsX5ZscEp-46">
          <mxGeometry relative="1" as="geometry" />
        </mxCell>
      </root>
    </mxGraphModel>
  </diagram>
</mxfile>
